<?xml version="1.0" encoding="utf-8"?><svg version="1.1" id="Layer_1" xmlns="http://www.w3.org/2000/svg" xmlns:xlink="http://www.w3.org/1999/xlink" x="0px" y="0px" viewBox="0 0 111.23 122.88" style="enable-background:new 0 0 111.23 122.88" xml:space="preserve"><style type="text/css">.st0{fill-rule:evenodd;clip-rule:evenodd;}</style><g><path class="st0" d="M40.91,55.32l-0.27,16.72h17.51c3.71,0,6.74,3.03,6.74,6.74v6.74h-0.07v26.36c0,3.71-3.03,6.74-6.74,6.74 h-6.74V87.46c0-2.95-1.11-1.93-4.45-1.93H31.83v-0.04h-8.64c-5.58,0-10.14-4.56-10.14-10.14V40.18c0-5.67,4.64-10.31,10.31-10.31 h5.1c10.62,0,8.93,7.31,13.63,11.91c4.64,4.54,3.47,5.06,9.81,5.06h13.66c11.31,0,5.23,10.99-1.47,10.65H51.57 C45.99,57.49,45.52,58.38,40.91,55.32L40.91,55.32z M76.48,57.55c-1.63,0-2.95-1.32-2.95-2.95c0-1.63,1.32-2.95,2.95-2.95h18.99 l10.17-20.7c0.71-1.46,2.48-2.06,3.94-1.35c1.46,0.71,2.06,2.48,1.35,3.93l-10.87,22.12c-0.42,1.11-1.5,1.9-2.76,1.9H76.48 L76.48,57.55z M50.09,59.66h57.21c0.33,0,0.6,0.28,0.6,0.6v8.59c0,0.32-0.28,0.6-0.6,0.6h-2.7v52.64c0,0.44-0.36,0.79-0.79,0.79 h-6.79c-0.44,0-0.79-0.36-0.79-0.79V69.45H50.09c-0.32,0-0.6-0.27-0.6-0.6v-8.59C49.49,59.93,49.76,59.66,50.09,59.66L50.09,59.66z M5.54,112.32c0.05-0.41,0.24-0.81,0.55-1.13c2.33-2.35,5.28-4.27,8.65-5.58c2.36-0.92,4.91-1.54,7.59-1.81l-0.51-8.03H3.54 c-1.9,0-3.47-1.56-3.47-3.47c0-14.35,3.38-25.14,0-41.48c-1-4.84,8.99-5.54,8.99,0.26v36.77h34.58c1.91,0,3.46,2.54,3.46,4.45V95 c0,0.42-0.35,0.76-0.76,0.76H27.99l-0.71,7.95c2.84,0.19,5.56,0.77,8.06,1.68c3.22,1.17,6.07,2.9,8.4,5.02 c0.56,0.51,0.76,1.26,0.58,1.95c0.9,0.67,1.48,1.74,1.48,2.95c0,2.04-1.65,3.69-3.69,3.69c-2.04,0-3.68-1.65-3.68-3.69 c0-1.22,0.59-2.3,1.5-2.97c-1.72-1.34-3.73-2.45-5.93-3.25c-2.37-0.87-4.98-1.39-7.73-1.48l-0.4,3.98l-0.02,0.17 c1.56,0.43,2.7,1.86,2.7,3.55c0,2.04-1.65,3.69-3.68,3.69c-2.04,0-3.69-1.65-3.69-3.69c0-1.68,1.13-3.1,2.67-3.54l-0.01-0.19 l-0.28-3.94c-2.63,0.18-5.12,0.74-7.38,1.62h-0.01c-2.2,0.86-4.19,2.02-5.89,3.42c0.68,0.67,1.1,1.6,1.1,2.63 c0,2.04-1.65,3.69-3.68,3.69c-2.04,0-3.69-1.65-3.69-3.69C4,114.08,4.61,112.99,5.54,112.32L5.54,112.32z M35.04,0 c7.79,0,14.1,6.31,14.1,14.1c0,7.79-6.31,14.1-14.1,14.1c-7.79,0-14.1-6.31-14.1-14.1C20.94,6.31,27.25,0,35.04,0L35.04,0z"/></g></svg>