<?xml version="1.0" standalone="no"?>
<!DOCTYPE svg PUBLIC "-//W3C//DTD SVG 20010904//EN"
 "http://www.w3.org/TR/2001/REC-SVG-20010904/DTD/svg10.dtd">
<svg version="1.0" xmlns="http://www.w3.org/2000/svg"
 width="900.000000pt" height="900.000000pt" viewBox="0 0 900.000000 900.000000"
 preserveAspectRatio="xMidYMid meet">
<metadata>
Created by potrace 1.10, written by Peter Selinger 2001-2011
</metadata>
<g transform="translate(0.000000,900.000000) scale(0.100000,-0.100000)"
fill="#000000" stroke="none">
<path d="M5009 8721 c7 -11 25 -28 41 -36 30 -16 90 -21 90 -7 -1 12 -43 38
-75 46 -16 4 -38 9 -48 12 -16 5 -17 3 -8 -15z"/>
<path d="M3705 8648 c-25 -14 -79 -58 -70 -58 16 0 72 29 84 44 18 21 11 28
-14 14z"/>
<path d="M4241 8616 c-19 -23 1 -26 90 -16 46 6 85 10 87 10 2 0 0 5 -3 10
-10 16 -160 13 -174 -4z"/>
<path d="M5180 8585 c0 -9 5 -15 11 -13 6 2 11 8 11 13 0 5 -5 11 -11 13 -6 2
-11 -4 -11 -13z"/>
<path d="M3560 8555 c0 -9 6 -12 15 -9 8 4 15 10 15 15 0 5 -7 9 -15 9 -8 0
-15 -7 -15 -15z"/>
<path d="M4190 8555 c0 -8 5 -15 10 -15 6 0 10 7 10 15 0 8 -4 15 -10 15 -5 0
-10 -7 -10 -15z"/>
<path d="M4653 8546 c9 -7 16 -24 15 -37 -2 -14 3 -24 12 -26 23 -5 48 18 52
47 3 23 0 25 -47 28 -44 2 -48 1 -32 -12z"/>
<path d="M3857 8534 c-14 -14 -7 -25 13 -22 12 2 21 8 21 13 0 12 -24 18 -34
9z"/>
<path d="M4550 8520 c0 -5 -8 -10 -17 -10 -21 0 -97 -85 -105 -116 -4 -17 -2
-20 13 -17 11 3 19 12 19 19 0 16 93 114 108 114 6 0 14 5 17 10 3 6 -3 10
-14 10 -12 0 -21 -4 -21 -10z"/>
<path d="M5237 8523 c-11 -19 16 -55 50 -70 21 -8 53 -30 71 -49 56 -58 101
-33 52 29 -11 14 -20 32 -20 41 0 8 -10 22 -22 30 -27 16 -124 30 -131 19z"/>
<path d="M3770 8501 c0 -27 19 -36 37 -18 18 18 9 37 -18 37 -12 0 -19 -7 -19
-19z"/>
<path d="M4855 8510 c-3 -6 -3 -24 0 -41 7 -30 8 -31 58 -27 49 3 52 2 50 -19
-3 -26 5 -28 42 -11 30 13 31 20 8 40 -55 46 -145 80 -158 58z"/>
<path d="M4772 8498 c-28 -14 -23 -32 10 -36 25 -3 44 20 32 39 -6 11 -13 11
-42 -3z"/>
<path d="M4095 8490 c-3 -5 -4 -14 0 -19 3 -5 -5 -11 -17 -13 -17 -2 -23 -9
-22 -28 1 -13 -5 -30 -12 -37 -13 -13 -8 -53 7 -53 5 0 12 12 15 28 4 15 10
29 13 32 11 8 51 80 51 91 0 12 -27 12 -35 -1z"/>
<path d="M3644 8439 c-52 -41 -61 -65 -27 -74 16 -4 31 -1 42 9 9 8 42 25 74
37 65 25 73 39 21 39 -19 0 -44 4 -54 10 -14 7 -26 3 -56 -21z"/>
<path d="M4235 8453 c-38 -19 -77 -78 -73 -111 3 -28 28 -44 28 -18 0 8 12 21
26 28 17 8 31 28 41 56 18 56 15 63 -22 45z"/>
<path d="M5665 8356 c-37 -40 -43 -56 -22 -56 15 0 34 20 55 58 22 39 5 38
-33 -2z"/>
<path d="M4870 8346 c0 -2 14 -6 30 -8 17 -3 30 -1 30 4 0 4 -13 8 -30 8 -16
0 -30 -2 -30 -4z"/>
<path d="M5112 8323 c30 -29 44 -27 33 6 -4 14 -15 21 -33 21 l-27 0 27 -27z"/>
<path d="M3551 8322 c-6 -12 -5 -25 5 -42 7 -14 13 -46 14 -71 0 -31 6 -51 18
-62 26 -24 32 -21 32 12 0 16 7 36 15 45 25 24 17 56 -24 97 -44 44 -47 45
-60 21z"/>
<path d="M5510 8320 c0 -5 7 -10 15 -10 8 0 15 5 15 10 0 6 -7 10 -15 10 -8 0
-15 -4 -15 -10z"/>
<path d="M4970 8289 c72 -62 103 -95 116 -126 8 -17 22 -38 32 -45 11 -7 22
-22 26 -33 3 -11 19 -29 36 -40 29 -19 40 -45 20 -45 -16 0 -12 -20 10 -47 19
-24 20 -24 20 -5 0 11 -4 24 -10 27 -20 12 -9 25 21 25 17 0 28 4 24 10 -3 6
-15 10 -25 10 -11 0 -24 12 -32 30 -7 17 -16 30 -19 30 -3 0 -25 27 -49 60
-24 33 -47 60 -52 60 -4 0 -8 6 -8 13 0 25 -61 87 -85 87 -13 0 -27 5 -30 10
-3 6 -12 10 -18 10 -7 0 4 -14 23 -31z"/>
<path d="M5345 8300 c-11 -18 27 -51 45 -40 12 7 12 13 4 27 -14 22 -40 28
-49 13z"/>
<path d="M5933 8278 c-12 -27 2 -68 24 -68 11 0 13 8 8 33 -12 52 -20 61 -32
35z"/>
<path d="M5433 8279 c9 -5 17 -19 17 -29 0 -24 34 -43 60 -35 38 12 23 42 -29
59 -56 18 -74 20 -48 5z"/>
<path d="M4147 8273 c-4 -3 -7 -15 -7 -25 0 -15 5 -17 25 -12 22 5 27 1 40
-30 8 -19 15 -44 15 -54 0 -26 22 -43 40 -32 12 8 13 13 3 27 -7 10 -19 32
-27 48 -15 33 -60 85 -74 85 -5 0 -12 -3 -15 -7z"/>
<path d="M5170 8241 c0 -17 118 -133 124 -122 13 20 -17 92 -43 105 -37 19
-81 28 -81 17z"/>
<path d="M3410 8195 c0 -8 5 -15 10 -15 6 0 10 7 10 15 0 8 -4 15 -10 15 -5 0
-10 -7 -10 -15z"/>
<path d="M4010 8183 c0 -22 2 -25 10 -13 13 20 13 40 0 40 -5 0 -10 -12 -10
-27z"/>
<path d="M5885 8153 c10 -40 45 -95 59 -90 6 2 12 18 14 35 2 23 -4 38 -22 57
-35 35 -60 34 -51 -2z"/>
<path d="M5400 8160 c0 -13 31 -62 45 -72 5 -4 27 -8 47 -8 37 0 37 -1 31 -31
-5 -26 -3 -30 12 -28 20 4 73 83 74 112 1 10 -6 17 -19 17 -10 0 -23 -8 -29
-17 -8 -16 -11 -15 -20 10 -10 26 -14 27 -76 27 -38 0 -65 -4 -65 -10z"/>
<path d="M5670 8130 c0 -23 4 -30 20 -30 25 0 28 45 4 54 -23 9 -24 8 -24 -24z"/>
<path d="M3690 8130 c0 -19 3 -21 12 -12 9 9 9 15 0 24 -9 9 -12 7 -12 -12z"/>
<path d="M5745 8096 c-7 -43 -9 -46 -36 -46 -22 0 -32 -7 -41 -25 -20 -45 3
-48 62 -10 64 41 72 52 61 91 -13 48 -38 43 -46 -10z"/>
<path d="M4537 8089 c-11 -7 -50 -9 -98 -6 -76 5 -80 5 -95 -18 -22 -34 -69
-57 -137 -65 -32 -5 -66 -15 -76 -24 -10 -9 -24 -16 -32 -16 -8 0 -21 -6 -27
-12 -12 -12 -32 -15 -114 -19 -30 -2 -38 -25 -15 -48 10 -10 4 -20 -30 -49
-62 -56 -173 -211 -173 -244 0 -9 -6 -21 -13 -27 -8 -6 -22 -37 -32 -68 -11
-32 -23 -62 -27 -67 -4 -6 -8 -17 -8 -25 0 -8 -8 -23 -17 -33 -13 -14 -14 -21
-5 -30 14 -14 16 -127 2 -148 -8 -13 -10 -13 -14 0 -3 8 -7 38 -8 65 -2 28 -7
49 -12 48 -15 -3 -50 -106 -50 -148 0 -22 4 -61 9 -88 6 -39 5 -51 -10 -67
-14 -15 -16 -29 -11 -60 7 -45 4 -48 -24 -20 -22 22 -25 41 -9 57 8 8 6 18 -6
37 -10 14 -21 26 -25 26 -16 0 -22 -43 -9 -66 11 -20 10 -30 -4 -59 -9 -20
-17 -52 -17 -72 l0 -37 20 22 c26 27 56 30 45 5 -4 -10 -12 -40 -17 -68 -5
-27 -12 -52 -14 -54 -6 -6 -74 32 -74 41 0 5 -7 8 -15 8 -27 0 -16 -38 20 -68
31 -25 34 -31 21 -41 -11 -9 -13 -18 -7 -30 5 -9 4 -37 -1 -66 -9 -43 -8 -56
10 -95 34 -74 34 -116 -1 -195 -37 -84 -46 -160 -24 -201 l15 -29 6 50 c3 28
11 70 17 95 7 25 15 63 18 85 4 23 11 47 16 55 5 8 12 46 17 84 17 152 25 193
51 239 15 27 31 70 36 95 5 26 19 79 31 117 34 113 39 133 65 283 51 288 100
414 217 559 125 154 276 245 455 273 28 4 57 11 63 15 20 12 263 14 305 3 22
-6 50 -10 62 -10 13 1 46 -7 73 -18 28 -11 63 -20 78 -20 15 0 36 -7 46 -15
11 -8 38 -15 60 -15 30 0 52 -9 80 -30 22 -17 52 -30 68 -30 15 0 28 1 28 3 0
10 -88 95 -102 100 -10 4 -18 13 -18 22 0 9 -9 15 -26 15 -14 0 -37 9 -51 20
-14 11 -39 19 -57 18 -17 -1 -41 4 -53 10 -13 7 -31 8 -51 2 -24 -6 -36 -4
-54 9 -37 29 -94 44 -117 32 -27 -15 -54 -14 -87 4 -34 17 -43 18 -67 4z"/>
<path d="M3390 8052 c0 -11 9 -27 20 -37 19 -17 20 -17 20 -1 0 23 -18 56 -30
56 -6 0 -10 -8 -10 -18z"/>
<path d="M5942 8008 c-13 -13 -15 -40 -6 -87 9 -45 21 -38 27 17 2 26 8 55 12
65 8 20 -14 24 -33 5z"/>
<path d="M5322 7954 c17 -17 32 -25 43 -20 20 7 10 26 -15 26 -10 0 -22 5 -25
10 -3 6 -11 10 -18 10 -6 0 0 -12 15 -26z"/>
<path d="M3430 7956 c0 -2 7 -9 15 -16 12 -10 15 -10 15 4 0 9 -7 16 -15 16
-8 0 -15 -2 -15 -4z"/>
<path d="M3570 7930 c0 -11 4 -20 9 -20 11 0 22 26 14 34 -12 12 -23 5 -23
-14z"/>
<path d="M5420 7912 c0 -20 18 -32 47 -32 9 0 13 8 11 23 -4 30 -58 39 -58 9z"/>
<path d="M6020 7900 c-7 -17 -10 -46 -7 -67 5 -29 2 -42 -14 -59 -26 -28 -43
-94 -24 -94 7 0 15 9 18 19 2 11 15 21 28 23 19 2 25 10 27 38 2 19 8 40 14
47 11 14 -8 123 -21 123 -5 0 -14 -14 -21 -30z"/>
<path d="M5734 7895 c-18 -14 -17 -15 20 -13 22 2 41 9 44 16 5 17 -40 15 -64
-3z"/>
<path d="M5655 7880 c3 -5 17 -10 31 -10 14 0 22 4 19 10 -3 6 -17 10 -31 10
-14 0 -22 -4 -19 -10z"/>
<path d="M3540 7825 c0 -19 5 -35 10 -35 6 0 10 16 10 35 0 19 -4 35 -10 35
-5 0 -10 -16 -10 -35z"/>
<path d="M3666 7853 c-11 -11 -6 -23 9 -23 8 0 15 4 15 9 0 13 -16 22 -24 14z"/>
<path d="M5883 7821 c-24 -20 -29 -36 -14 -45 16 -10 41 6 57 35 13 27 13 29
-3 29 -10 -1 -28 -9 -40 -19z"/>
<path d="M5210 7811 c0 -10 7 -21 15 -25 8 -3 15 -12 15 -20 0 -19 72 -106
109 -131 16 -11 59 -41 96 -67 39 -29 77 -48 93 -48 57 0 161 -101 184 -180
62 -206 67 -249 53 -495 -4 -62 -1 -145 8 -219 8 -66 13 -124 11 -130 -2 -6
-9 -78 -14 -161 -6 -82 -14 -177 -20 -210 -6 -40 -6 -73 1 -100 16 -59 61
-147 87 -168 18 -15 21 -25 16 -53 -5 -27 -3 -34 9 -34 40 0 60 78 33 128 -8
15 -22 49 -32 75 -9 26 -28 56 -41 66 -12 11 -23 24 -23 30 0 23 45 95 91 145
27 29 53 65 59 80 5 14 21 31 35 36 30 11 33 35 5 50 -11 6 -20 21 -20 34 0
13 -6 29 -14 35 -11 9 -17 6 -30 -14 -24 -36 -36 -23 -36 38 0 29 -9 84 -20
122 -11 38 -20 82 -20 97 0 15 -5 38 -11 51 -13 29 10 106 41 137 17 17 19 24
10 35 -6 7 -12 45 -13 83 -1 39 -5 74 -10 78 -4 4 -7 14 -7 23 0 8 -9 25 -21
37 -17 18 -19 26 -10 42 15 28 14 42 -4 42 -8 0 -17 11 -21 25 -3 13 -12 29
-20 36 -20 17 -18 76 4 88 15 10 14 13 -14 38 -17 16 -44 38 -60 49 l-29 22
24 26 c14 14 34 26 45 26 34 1 -43 31 -84 33 -20 1 -41 9 -48 20 -9 12 -21 16
-34 11 -21 -6 -98 23 -98 37 0 5 -13 15 -30 24 -16 8 -40 25 -54 38 -13 12
-38 32 -55 45 -17 13 -34 34 -37 48 -4 14 -13 24 -24 24 -11 0 -22 5 -25 10
-3 6 -19 10 -36 10 -22 0 -29 -5 -29 -19z"/>
<path d="M3637 7633 c-10 -10 -8 -43 2 -43 12 0 41 29 41 41 0 10 -33 12 -43
2z"/>
<path d="M5810 7529 c0 -22 22 -49 50 -64 37 -19 40 -19 40 5 0 10 8 24 18 30
14 9 13 10 -10 6 -21 -5 -30 -1 -38 14 -11 21 -60 29 -60 9z"/>
<path d="M5990 7500 c0 -5 12 -18 28 -27 15 -10 36 -29 47 -42 11 -13 35 -39
53 -58 17 -18 32 -38 32 -43 0 -5 14 -17 31 -26 26 -13 33 -14 41 -2 16 23 3
103 -20 126 -28 28 -45 28 -37 1 7 -20 6 -20 -22 -3 -15 10 -39 28 -53 40 -38
34 -100 55 -100 34z"/>
<path d="M3572 7448 c-7 -7 -12 -17 -12 -24 0 -6 -7 -17 -15 -24 -10 -8 -13
-21 -8 -39 8 -34 8 -34 31 -22 17 9 42 75 42 110 0 15 -23 14 -38 -1z"/>
<path d="M3438 7313 c-20 -24 -29 -50 -22 -67 4 -11 12 -12 41 -3 36 11 57 44
47 72 -8 20 -47 19 -66 -2z"/>
<path d="M6114 7299 c-7 -12 25 -60 44 -67 15 -5 16 32 2 59 -12 21 -35 25
-46 8z"/>
<path d="M6030 7183 c0 -13 4 -23 8 -23 10 0 45 -109 62 -190 18 -85 20 -90
40 -90 27 0 36 51 15 92 -14 30 -14 35 1 63 15 28 15 35 1 75 -14 42 -18 45
-53 48 -26 2 -45 11 -56 25 l-18 22 0 -22z"/>
<path d="M3424 7039 c-3 -6 -1 -16 5 -22 8 -8 11 -5 11 11 0 24 -5 28 -16 11z"/>
<path d="M3353 6939 c-8 -42 -8 -70 -2 -87 15 -39 29 -10 28 58 -1 87 -13 100
-26 29z"/>
<path d="M3831 6931 c-35 -19 -60 -53 -61 -83 0 -22 16 -23 28 -2 11 20 44 17
205 -24 131 -33 174 -32 170 6 -2 16 3 22 16 22 10 0 24 7 31 15 8 9 21 13 32
9 19 -6 19 -5 1 15 -9 12 -25 21 -35 21 -9 0 -19 4 -23 9 -3 6 -37 10 -75 9
-54 0 -76 -5 -95 -20 -21 -16 -28 -17 -47 -7 -13 7 -27 18 -33 25 -18 23 -77
26 -114 5z"/>
<path d="M4340 6861 c0 -11 4 -22 9 -25 11 -7 23 22 15 35 -9 16 -24 10 -24
-10z"/>
<path d="M4917 6813 c-10 -9 -9 -43 2 -43 13 0 23 32 13 42 -5 5 -11 5 -15 1z"/>
<path d="M5121 6782 c-29 -30 -43 -37 -75 -37 -41 0 -61 -21 -29 -31 10 -3 27
-11 38 -17 24 -13 190 -22 240 -13 44 9 49 41 8 57 -16 6 -39 21 -53 33 -14
13 -40 28 -59 35 -32 10 -35 9 -70 -27z"/>
<path d="M6033 6797 c4 -13 9 -36 13 -50 4 -19 -1 -35 -20 -60 -14 -19 -26
-47 -26 -63 0 -27 28 -175 34 -181 1 -2 13 18 25 43 19 37 22 57 18 102 -3 41
0 65 11 84 14 25 15 33 1 85 -12 48 -19 59 -38 61 -21 3 -23 1 -18 -21z"/>
<path d="M5914 6789 c-3 -6 -1 -16 5 -22 8 -8 11 -5 11 11 0 24 -5 28 -16 11z"/>
<path d="M4835 6760 c-7 -11 22 -33 35 -25 5 3 10 10 10 14 0 12 -39 21 -45
11z"/>
<path d="M5405 6724 c-9 -14 -14 -32 -11 -40 6 -15 51 -18 105 -8 31 6 31 7
14 26 -19 21 -65 48 -81 48 -5 0 -17 -12 -27 -26z"/>
<path d="M3816 6720 c-21 -10 -53 -34 -71 -54 -17 -20 -37 -36 -43 -36 -18 0
-24 -20 -11 -36 15 -18 68 -12 106 13 20 13 31 14 62 4 50 -14 49 -15 53 12 2
15 11 23 30 25 23 3 27 -1 30 -25 3 -25 8 -29 53 -37 92 -16 119 -13 130 12
12 28 41 24 38 -6 -2 -16 9 -28 43 -48 41 -24 49 -26 83 -15 21 6 47 11 57 11
11 0 27 12 37 25 17 24 50 105 44 111 -1 2 -44 -4 -95 -13 -85 -14 -94 -14
-111 1 -21 19 -62 21 -79 4 -9 -9 -15 -9 -24 0 -9 9 -7 12 12 12 18 0 21 3 13
11 -7 7 -20 8 -30 4 -28 -11 -145 -13 -170 -2 -13 6 -23 16 -23 22 0 29 -78
32 -134 5z m109 -20 c4 -6 -8 -10 -30 -10 -22 0 -34 4 -30 10 3 6 17 10 30 10
13 0 27 -4 30 -10z"/>
<path d="M5940 6725 c1 -19 32 -65 44 -65 13 0 4 27 -19 55 -21 26 -25 27 -25
10z"/>
<path d="M5522 6638 c5 -15 28 -18 29 -3 0 6 -7 12 -17 13 -10 3 -15 -1 -12
-10z"/>
<path d="M4746 6605 c-9 -9 -16 -20 -16 -25 0 -20 13 -40 26 -40 8 0 20 -15
28 -33 11 -27 22 -35 62 -46 27 -8 69 -13 93 -13 37 1 49 7 78 38 36 40 32 54
-15 54 -13 0 -20 4 -17 10 3 6 21 10 40 10 42 0 65 -29 65 -82 0 -35 2 -38 41
-48 22 -6 61 -10 87 -8 40 3 47 6 52 28 9 37 54 35 58 -2 2 -21 10 -28 34 -33
16 -4 52 -19 79 -33 69 -35 81 -21 44 52 -27 54 -45 72 -112 108 -38 21 -64
23 -81 6 -9 -9 -15 -9 -24 0 -13 13 -85 16 -112 6 -9 -3 -16 -13 -16 -21 0
-12 -2 -12 -16 1 -8 9 -19 16 -22 16 -4 0 -12 10 -17 23 -10 23 -30 25 -112
11 -25 -4 -33 -1 -33 11 0 11 -11 15 -37 16 -21 1 -42 0 -48 -2 -18 -5 -60 -3
-76 5 -10 4 -23 1 -33 -9z"/>
<path d="M3305 6558 c-30 -61 -57 -195 -80 -398 -8 -74 -20 -168 -26 -208 -20
-125 2 -210 64 -254 18 -12 36 -28 40 -35 4 -7 21 -13 38 -13 26 0 29 -2 23
-25 -4 -18 -1 -32 11 -45 10 -11 21 -36 26 -57 21 -98 41 -167 55 -187 8 -13
25 -50 38 -84 21 -52 47 -92 133 -202 10 -12 12 -9 13 20 0 23 -8 44 -23 60
-32 34 -50 70 -92 175 -20 50 -40 99 -45 110 -13 29 -32 130 -39 210 -7 76 -7
77 -92 90 -82 12 -121 84 -99 182 6 29 16 55 21 58 5 4 9 97 9 215 0 135 4
219 12 237 6 15 19 51 29 78 32 87 19 143 -16 73z"/>
<path d="M3846 6492 c-3 -6 4 -13 16 -17 13 -4 38 -13 57 -22 44 -20 220 -9
269 17 31 17 31 18 10 23 -13 2 -43 2 -68 -1 -58 -6 -87 -6 -191 3 -58 5 -88
4 -93 -3z"/>
<path d="M3378 6422 c-18 -38 -38 -107 -38 -129 0 -25 21 -12 34 20 13 29 32
147 24 147 -2 0 -11 -17 -20 -38z"/>
<path d="M5541 6448 c0 -7 4 -22 9 -33 7 -17 9 -15 9 13 1 17 -3 32 -9 32 -5
0 -10 -6 -9 -12z"/>
<path d="M4990 6355 c0 -15 52 -42 135 -70 83 -28 257 -31 214 -4 -7 5 -25 9
-37 9 -13 0 -35 9 -48 19 -13 11 -48 22 -77 26 -28 4 -77 13 -108 21 -71 18
-79 18 -79 -1z"/>
<path d="M6090 6311 c0 -5 6 -22 14 -38 20 -39 41 -190 41 -298 0 -81 -3 -94
-27 -132 -16 -24 -28 -45 -28 -49 0 -3 -6 -20 -14 -37 -49 -109 -53 -123 -49
-182 l5 -60 -49 -52 -49 -53 -65 0 c-75 0 -119 22 -145 72 -20 38 -16 45 -63
-102 -16 -52 -44 -121 -60 -152 -17 -32 -31 -68 -31 -80 0 -14 20 -42 50 -72
28 -27 50 -54 50 -60 0 -6 12 -33 25 -61 29 -59 34 -145 10 -165 -26 -22 -16
-47 43 -109 44 -46 66 -61 97 -67 48 -8 135 -63 135 -84 0 -15 106 -130 120
-130 4 0 11 -10 17 -22 6 -13 43 -41 84 -62 66 -36 204 -132 253 -178 10 -9
33 -24 50 -32 17 -8 40 -23 51 -33 43 -39 112 -91 151 -114 22 -13 76 -48 120
-78 43 -30 102 -67 129 -84 87 -51 185 -131 185 -150 0 -14 5 -17 22 -11 20 6
21 5 10 -9 -15 -18 -2 -30 22 -21 15 6 64 -23 102 -60 20 -21 164 -214 196
-263 9 -14 32 -43 52 -63 20 -21 36 -41 36 -44 0 -9 62 -100 90 -131 33 -37
90 -131 90 -148 0 -7 13 -26 28 -43 43 -45 105 -131 118 -164 76 -188 83 -219
55 -244 -27 -24 -27 -65 -1 -117 25 -49 40 -43 40 17 0 49 15 57 41 21 23 -33
93 -196 87 -202 -3 -3 -22 -9 -43 -12 -31 -5 -40 -2 -54 15 -13 18 -23 21 -53
16 -41 -7 -52 -24 -15 -24 12 0 28 -9 35 -20 8 -14 23 -20 47 -20 32 0 35 -3
35 -28 0 -34 16 -52 47 -52 22 0 23 -3 25 -92 4 -251 4 -257 -14 -274 -15 -15
-21 -16 -42 -5 -39 21 -49 6 -42 -61 3 -33 9 -64 12 -69 10 -16 28 6 49 60 15
39 22 48 32 39 17 -14 17 -78 -1 -103 -7 -11 -17 -40 -21 -65 -4 -24 -19 -62
-32 -84 -23 -36 -26 -55 -39 -255 -16 -258 -30 -406 -39 -421 -11 -18 -29
-216 -29 -320 0 -52 2 -161 4 -243 l4 -147 33 0 34 0 -3 87 c-1 49 2 120 6
158 4 39 7 151 6 250 0 132 4 195 15 235 8 30 15 82 15 115 0 34 6 85 14 115
8 31 16 127 19 216 4 150 7 164 28 193 22 30 23 41 25 184 0 84 6 170 12 192
17 59 0 284 -24 320 -15 23 -16 33 -6 76 7 28 12 63 12 77 0 34 -33 97 -74
142 -38 42 -66 100 -66 139 0 16 -7 45 -15 64 -8 20 -15 55 -15 77 0 22 -4 40
-8 40 -10 0 -42 65 -42 85 0 16 -77 125 -116 164 -13 13 -27 35 -30 47 -3 13
-13 26 -23 29 -9 2 -31 30 -49 60 -18 30 -57 80 -87 110 -30 31 -57 66 -61 77
-3 12 -15 31 -26 42 -10 11 -22 32 -25 46 -3 14 -17 36 -30 49 -12 13 -23 31
-23 40 0 19 -169 201 -187 201 -6 0 -24 15 -40 33 -15 19 -71 66 -125 105 -53
39 -98 76 -100 81 -3 9 -150 101 -162 101 -4 0 -19 11 -34 25 -15 14 -33 25
-40 25 -7 0 -36 17 -65 39 -29 21 -77 52 -108 70 -31 17 -64 42 -73 56 -9 14
-40 39 -69 56 -28 16 -79 50 -112 74 -33 24 -75 49 -92 55 -18 6 -33 16 -33
22 0 22 -101 108 -126 108 -19 0 -26 6 -30 29 -5 21 -24 42 -70 76 -35 26 -64
53 -64 60 0 7 -21 20 -46 30 -26 10 -64 35 -85 56 -31 31 -39 46 -39 77 0 52
-26 144 -43 154 -8 4 -18 20 -22 35 -3 14 -27 53 -52 86 l-45 60 22 66 c12 36
32 82 44 101 12 19 25 43 29 54 5 13 12 16 25 10 9 -5 51 -10 93 -12 88 -4
131 12 186 70 43 44 63 96 63 162 0 31 6 70 14 88 8 18 21 49 30 70 9 20 16
43 16 52 0 9 6 27 14 39 23 36 28 124 12 217 -27 152 -41 215 -54 238 -13 22
-32 30 -32 13z"/>
<path d="M6002 6224 c-26 -18 -28 -36 -7 -54 8 -7 15 -26 15 -42 0 -16 9 -41
20 -55 11 -14 20 -34 20 -44 0 -10 5 -21 11 -25 22 -13 -5 204 -28 227 -5 5
-18 3 -31 -7z"/>
<path d="M4850 6167 c0 -21 49 -85 70 -92 11 -3 20 -12 20 -20 0 -7 3 -21 6
-30 6 -14 1 -16 -27 -13 -32 3 -34 5 -31 36 2 26 -1 32 -18 32 -13 0 -24 -10
-30 -26 -16 -42 -12 -54 18 -54 21 0 30 -8 42 -33 12 -25 22 -33 48 -35 64 -6
81 39 37 98 -14 19 -25 41 -25 49 0 19 -79 101 -97 101 -7 0 -13 -6 -13 -13z"/>
<path d="M4015 6127 c-55 -32 -94 -71 -161 -160 -85 -113 -114 -172 -114 -232
0 -60 17 -72 78 -52 44 14 48 14 62 -2 22 -25 171 -111 182 -105 4 3 8 12 8
20 0 26 30 74 46 74 8 0 25 -11 37 -24 17 -18 29 -22 56 -18 25 3 36 0 43 -12
8 -15 12 -15 35 4 34 26 79 19 109 -17 l22 -26 32 23 c27 19 38 21 73 14 33
-7 45 -16 57 -41 l15 -32 17 29 c10 18 25 30 38 30 17 0 20 -6 20 -39 l0 -38
56 -7 c30 -3 71 -13 91 -21 56 -23 115 -20 142 9 23 24 23 24 3 35 -12 6 -36
11 -54 11 -19 0 -52 10 -73 21 -112 60 -131 69 -144 69 -8 0 -23 8 -34 18 -23
20 -54 23 -362 32 -22 1 -78 6 -125 11 -47 6 -129 14 -183 18 -54 4 -103 13
-109 19 -15 15 15 60 50 73 30 12 62 38 62 51 0 4 -27 8 -60 8 -33 0 -60 2
-60 5 0 5 33 57 67 105 10 13 35 40 56 58 20 19 37 40 37 48 0 7 9 18 20 24
11 6 20 15 20 20 0 13 -30 11 -55 -3z"/>
<path d="M4173 6053 c-35 -13 9 -73 54 -73 15 0 41 -5 59 -12 83 -30 76 28 -9
68 -50 23 -79 28 -104 17z"/>
<path d="M4599 5976 c-20 -7 -51 -24 -70 -38 -20 -15 -52 -27 -79 -30 -26 -3
-66 -18 -96 -37 -28 -17 -62 -31 -75 -31 -19 0 -15 -5 20 -20 55 -25 77 -25
98 0 24 28 59 25 79 -6 12 -18 24 -24 43 -22 23 3 26 7 26 46 0 27 5 46 15 52
8 5 54 10 101 10 70 0 89 3 102 18 28 30 21 50 -20 61 -50 14 -100 13 -144 -3z"/>
<path d="M6057 5940 c-3 -11 -1 -23 4 -26 5 -3 9 6 9 20 0 31 -6 34 -13 6z"/>
<path d="M3404 5905 c-7 -38 -1 -65 16 -65 13 0 13 87 1 95 -6 3 -13 -10 -17
-30z"/>
<path d="M4110 5873 c1 -15 66 -48 88 -45 40 6 23 37 -21 38 -20 0 -40 3 -44
7 -9 9 -23 9 -23 0z"/>
<path d="M5040 5824 c0 -8 11 -30 24 -47 13 -18 26 -44 30 -59 3 -16 13 -28
21 -28 21 0 18 27 -5 50 -12 12 -30 39 -41 60 -23 43 -29 49 -29 24z"/>
<path d="M4934 5665 c-17 -14 -17 -16 -3 -25 9 -5 20 -21 23 -35 3 -13 15 -29
26 -35 11 -6 20 -19 20 -29 0 -18 18 -31 45 -31 22 0 75 50 75 71 0 12 -14 28
-35 40 -19 12 -35 25 -35 29 0 9 -55 30 -80 30 -9 0 -25 -7 -36 -15z"/>
<path d="M4140 5430 c0 -5 6 -10 13 -10 15 0 44 -47 35 -56 -4 -3 -13 -7 -22
-8 -19 -3 -19 -13 -2 -38 14 -20 123 -45 249 -58 59 -6 95 -14 108 -25 12 -12
27 -15 44 -11 42 11 42 34 2 73 -21 19 -37 38 -37 42 0 5 22 11 48 14 26 3 70
17 97 31 l50 25 -46 1 c-26 0 -63 -7 -84 -15 -24 -11 -51 -14 -79 -10 -42 7
-67 -5 -63 -30 3 -17 -93 -18 -112 -2 -9 8 -32 18 -51 22 -19 4 -58 20 -87 36
-59 32 -63 33 -63 19z"/>
<path d="M5547 5044 c-4 -4 -7 -40 -7 -81 0 -54 -5 -83 -20 -110 -11 -21 -20
-43 -20 -49 0 -11 -24 -66 -40 -94 -5 -8 -29 -49 -54 -91 -49 -83 -139 -174
-279 -280 -46 -35 -111 -96 -145 -135 -70 -81 -143 -144 -167 -144 -9 0 -15
-6 -13 -13 2 -7 -34 -46 -79 -86 -46 -40 -92 -86 -104 -102 -11 -16 -29 -29
-39 -29 -10 0 -43 -25 -74 -55 -45 -45 -62 -55 -90 -55 -18 0 -39 -6 -46 -14
-6 -8 -23 -16 -37 -18 -15 -2 -28 -9 -31 -15 -5 -16 48 -17 92 -3 17 5 58 17
91 26 33 10 67 23 76 31 8 7 23 13 32 13 9 0 64 46 122 103 59 56 124 114 146
128 21 15 56 49 77 75 22 27 59 67 83 90 24 22 73 72 109 111 36 38 86 84 112
103 26 18 50 41 54 52 6 21 71 68 95 68 9 0 24 -9 34 -20 26 -28 69 -23 73 8
5 30 -14 52 -44 52 -13 0 -24 4 -24 9 0 5 17 38 39 72 21 35 41 74 45 85 9 28
38 35 72 18 33 -17 34 -17 34 1 0 8 -18 26 -40 40 -22 14 -40 29 -40 34 0 4 9
20 21 35 l21 26 28 -20 c33 -24 40 -25 40 -7 0 24 -34 47 -59 40 l-23 -6 3
103 c4 97 -3 125 -24 104z"/>
<path d="M3863 5018 c-33 -52 -35 -62 -12 -79 13 -9 19 -21 15 -28 -4 -7 -2
-18 4 -26 6 -8 9 -24 5 -36 -6 -18 -4 -20 14 -14 17 5 31 -2 61 -34 22 -23 47
-41 55 -41 23 0 28 25 11 52 -16 25 -13 38 10 38 7 0 14 -12 16 -27 5 -49 105
-102 135 -72 10 10 28 8 153 -20 25 -6 98 -13 163 -17 l118 -7 29 28 c25 24
35 27 75 23 25 -3 47 -2 50 2 3 4 34 11 69 15 45 4 70 12 82 26 12 14 28 19
48 17 35 -3 43 13 27 54 -7 20 -18 26 -53 31 -40 5 -49 2 -131 -54 -49 -32
-92 -59 -96 -59 -5 0 -16 9 -26 20 -21 23 -35 26 -35 6 0 -21 -58 -54 -86 -48
-19 3 -23 9 -18 24 6 19 2 19 -78 12 -45 -4 -93 -11 -106 -15 -37 -14 -51 -11
-77 17 -13 14 -29 23 -35 19 -12 -7 -66 11 -132 46 -20 10 -62 28 -92 40 -45
16 -59 27 -70 53 -22 52 -74 82 -93 54z"/>
<path d="M5341 4920 c-34 -22 -65 -40 -70 -40 -4 0 -27 -13 -49 -30 -23 -16
-46 -30 -50 -30 -15 0 -52 -46 -52 -64 0 -10 -9 -29 -20 -43 -16 -20 -18 -29
-9 -40 10 -11 16 -10 39 12 14 14 35 25 46 25 44 0 255 223 232 245 -3 3 -33
-13 -67 -35z"/>
<path d="M3780 4897 c0 -8 -9 -17 -20 -20 -22 -6 -28 -45 -10 -63 8 -8 6 -15
-5 -24 -8 -7 -15 -24 -15 -37 0 -58 -43 -167 -82 -207 -21 -22 -38 -46 -38
-54 0 -7 -15 -32 -33 -55 -19 -23 -42 -57 -53 -74 -10 -18 -22 -33 -26 -33 -4
0 -8 -8 -8 -18 0 -19 -39 -62 -56 -62 -5 0 -18 -14 -29 -30 -11 -16 -25 -30
-32 -30 -6 0 -15 -9 -18 -21 -4 -11 -25 -48 -48 -82 -23 -34 -47 -75 -53 -92
-7 -19 -17 -29 -28 -27 -9 2 -19 -4 -22 -12 -3 -8 -30 -24 -61 -36 -122 -45
-288 -217 -343 -355 -14 -33 -39 -83 -57 -112 -18 -29 -33 -63 -33 -76 0 -13
-8 -35 -19 -48 -11 -15 -23 -57 -31 -114 -7 -49 -16 -94 -20 -100 -4 -5 -13
-33 -19 -62 -6 -29 -24 -81 -41 -116 -16 -35 -30 -69 -30 -74 0 -6 -7 -16 -15
-23 -8 -7 -15 -27 -15 -46 0 -30 -14 -73 -41 -126 -5 -10 -9 -35 -9 -56 0 -21
-7 -61 -15 -89 -20 -66 -15 -436 6 -474 16 -29 15 -56 -13 -999 -4 -133 -14
-222 -28 -255 -5 -11 -10 -48 -13 -83 -2 -35 -9 -67 -15 -71 -8 -5 -12 -32
-11 -77 2 -71 -6 -122 -36 -234 -15 -56 -16 -76 -6 -145 6 -44 21 -104 33
-132 l23 -53 63 0 c60 0 82 12 42 25 -33 11 -80 79 -80 117 0 19 -5 49 -11 67
-14 39 4 187 26 211 10 11 15 38 15 81 0 65 22 183 43 229 12 27 15 79 17 300
0 95 6 167 16 210 13 53 15 115 13 345 l-4 280 27 27 c25 25 28 25 33 7 9 -28
34 -23 46 8 15 39 5 53 -39 53 -21 0 -45 6 -54 13 -23 17 -31 89 -33 278 -1
91 -5 170 -8 176 -12 20 17 132 78 298 20 55 43 121 52 147 10 31 28 57 50 73
35 27 44 62 18 71 -11 5 -15 24 -15 79 0 41 4 76 9 79 5 3 12 18 16 33 10 41
86 199 134 277 22 37 41 75 41 83 0 7 7 27 15 42 19 37 221 224 246 228 34 5
151 62 165 81 7 9 14 31 14 49 0 22 12 45 40 78 22 25 40 53 40 60 0 8 26 41
58 73 66 68 69 73 101 127 13 22 43 69 66 105 81 123 120 184 144 224 13 22
31 47 39 55 22 22 10 127 -17 152 -24 22 -26 30 -10 46 8 8 8 13 0 17 -6 4
-11 1 -11 -7z"/>
<path d="M4795 4669 c-10 -15 3 -25 16 -12 7 7 7 13 1 17 -6 3 -14 1 -17 -5z"/>
<path d="M3827 4565 c-21 -45 -21 -45 3 -45 13 0 22 10 28 33 16 57 -6 65 -31
12z"/>
<path d="M5630 4561 c0 -25 6 -28 69 -37 44 -6 53 -4 49 7 -3 8 -21 18 -40 24
-20 5 -40 13 -44 18 -14 14 -34 7 -34 -12z"/>
<path d="M5852 4524 c4 -21 22 -23 26 -1 2 10 -3 17 -13 17 -10 0 -15 -6 -13
-16z"/>
<path d="M3843 4403 c0 -54 -6 -112 -17 -148 -15 -54 -16 -66 -3 -115 13 -51
13 -57 -4 -79 -23 -28 -14 -49 11 -26 14 13 19 13 28 2 7 -8 9 -16 6 -20 -3
-3 0 -21 7 -40 6 -19 9 -46 5 -62 -12 -47 -133 -156 -189 -170 -15 -4 -30 -12
-34 -18 -9 -15 35 -47 67 -47 36 0 109 60 151 123 35 54 42 59 62 51 10 -4 16
-30 21 -92 3 -48 9 -104 12 -124 5 -31 3 -38 -10 -38 -12 0 -16 -10 -16 -44 0
-78 50 -89 87 -19 20 38 21 46 9 75 -7 18 -16 58 -20 88 -4 30 -18 89 -31 130
-12 41 -26 102 -30 135 -6 60 -34 250 -61 419 -12 79 -24 105 -45 106 -3 0 -6
-39 -6 -87z"/>
<path d="M5610 4462 c0 -26 4 -28 78 -45 89 -20 102 -21 102 -7 0 12 -73 50
-97 50 -10 0 -31 7 -47 15 -37 19 -36 20 -36 -13z"/>
<path d="M5536 4373 c7 -16 14 -34 14 -41 0 -7 7 -29 16 -50 14 -33 17 -35 24
-17 5 11 9 39 9 63 1 40 -2 44 -34 58 -46 19 -46 18 -29 -13z"/>
<path d="M5830 4366 c5 -11 11 -29 14 -39 5 -17 8 -16 45 3 51 26 60 25 101
-5 57 -42 110 -25 61 19 -25 23 -76 36 -160 40 -67 3 -69 3 -61 -18z"/>
<path d="M5291 4346 c-29 -30 -27 -60 4 -74 36 -17 59 -15 78 6 31 34 19 60
-35 81 -21 8 -29 6 -47 -13z"/>
<path d="M5919 4247 c-60 -28 -121 -90 -143 -147 -10 -25 -20 -51 -23 -57 -6
-16 30 -17 58 -2 13 7 18 16 14 29 -8 26 106 136 158 152 41 13 46 22 18 38
-25 13 -27 13 -82 -13z"/>
<path d="M6055 4250 c-7 -11 52 -40 79 -40 21 0 46 11 46 21 0 9 -64 29 -97
29 -12 0 -25 -5 -28 -10z"/>
<path d="M5471 4221 c-30 -41 -26 -66 12 -95 40 -31 49 -32 70 -8 23 25 21 74
-4 106 -27 34 -53 33 -78 -3z"/>
<path d="M5600 4236 c0 -23 112 -57 124 -37 7 11 -40 34 -91 44 -24 5 -33 3
-33 -7z"/>
<path d="M5214 4199 c-8 -8 -14 -24 -14 -35 0 -11 -13 -25 -33 -35 -20 -10
-31 -23 -29 -33 2 -9 -4 -16 -13 -16 -18 0 -20 -20 -2 -44 12 -17 15 -16 46 9
17 15 41 44 52 64 11 20 28 50 39 66 10 17 19 33 19 36 2 13 -51 4 -65 -12z"/>
<path d="M5746 4202 c-7 -12 22 -38 31 -28 4 3 0 14 -9 22 -9 10 -18 12 -22 6z"/>
<path d="M6150 4176 c0 -20 67 -89 79 -81 19 11 12 32 -21 64 -34 33 -58 40
-58 17z"/>
<path d="M3626 4172 c-3 -5 -21 -13 -40 -16 -21 -4 -42 -18 -57 -38 -13 -17
-30 -37 -36 -44 -21 -21 -15 -35 15 -32 37 4 37 -27 -1 -50 -24 -15 -29 -15
-37 -2 -8 12 -10 12 -16 -3 -10 -27 23 -70 49 -63 12 3 34 6 50 6 15 0 27 5
27 10 0 6 -7 10 -15 10 -25 0 -20 75 7 100 12 11 25 20 29 20 9 0 43 99 36
106 -3 3 -8 1 -11 -4z"/>
<path d="M5414 4107 c-10 -6 -24 -18 -31 -26 -6 -9 -25 -31 -42 -50 -38 -42
-43 -87 -8 -77 12 3 27 6 34 6 17 0 113 96 113 113 0 25 -43 47 -66 34z"/>
<path d="M5592 4109 c-29 -11 -28 -25 6 -59 24 -23 37 -28 75 -28 52 1 58 12
29 48 -23 28 -82 49 -110 39z"/>
<path d="M6239 4041 l-24 -19 25 -27 c22 -23 31 -26 69 -22 41 5 71 25 71 49
0 12 -64 38 -94 38 -13 0 -34 -9 -47 -19z"/>
<path d="M6476 4052 c-14 -13 -4 -30 20 -36 40 -11 51 9 15 27 -16 8 -32 12
-35 9z"/>
<path d="M5011 4004 c-29 -36 -26 -51 10 -70 22 -11 44 -14 74 -9 43 6 43 6
34 37 -20 70 -80 91 -118 42z"/>
<path d="M5870 4012 c0 -5 -11 -26 -25 -46 -13 -20 -22 -42 -19 -50 4 -9 -6
-16 -29 -20 -19 -4 -47 -16 -62 -28 -23 -18 -26 -26 -21 -58 4 -28 2 -39 -9
-44 -8 -3 -15 -13 -15 -23 0 -10 -16 -28 -35 -41 -19 -12 -35 -27 -35 -32 0
-23 -19 -8 -25 20 -8 37 -19 38 -41 5 -23 -35 -14 -48 56 -83 68 -34 88 -33
128 11 16 17 22 35 21 58 -5 67 0 99 16 99 43 0 94 52 95 96 0 22 10 39 35 61
36 32 40 40 27 60 -9 15 -62 28 -62 15z"/>
<path d="M6118 3990 c-20 -11 -40 -24 -43 -30 -3 -5 -15 -10 -25 -10 -27 0
-34 -18 -15 -40 25 -28 54 -31 73 -9 9 10 22 19 30 19 7 0 28 12 47 27 27 22
32 30 24 45 -12 23 -44 22 -91 -2z"/>
<path d="M3390 3956 c-14 -18 -6 -50 13 -44 15 6 22 37 10 49 -6 6 -15 4 -23
-5z"/>
<path d="M6552 3949 c-12 -5 -22 -11 -22 -14 0 -11 103 -53 116 -48 17 6 18
14 2 36 -17 23 -68 36 -96 26z"/>
<path d="M5250 3929 c-49 -15 -54 -23 -35 -53 10 -15 20 -24 23 -22 2 3 13 1
23 -5 37 -19 101 36 80 69 -10 17 -53 21 -91 11z"/>
<path d="M6362 3933 c-13 -3 -31 -18 -40 -34 -10 -16 -27 -32 -39 -35 -40 -10
-26 -27 15 -19 20 3 52 6 70 6 31 -2 102 40 102 60 0 7 -68 31 -80 28 -3 -1
-16 -4 -28 -6z"/>
<path d="M5624 3881 c-14 -22 -23 -44 -20 -50 7 -10 75 -3 89 9 5 4 4 16 -1
26 -6 11 -13 27 -16 37 -8 27 -23 20 -52 -22z"/>
<path d="M4947 3856 c-37 -33 -65 -95 -52 -117 14 -22 55 -29 84 -14 51 26 67
115 20 115 -23 0 -25 15 -3 24 8 3 12 10 9 16 -9 15 -17 12 -58 -24z"/>
<path d="M3356 3864 c-11 -28 -6 -60 15 -113 17 -40 27 -51 44 -51 19 0 23 -7
27 -45 7 -58 31 -95 63 -95 20 0 25 5 25 24 0 29 12 39 34 30 20 -8 21 -50 2
-61 -22 -13 25 -118 53 -118 11 0 27 -9 34 -20 12 -16 18 -17 30 -7 11 10 17
9 27 -3 8 -9 21 -13 32 -10 13 5 29 -5 57 -34 22 -23 47 -41 56 -41 26 0 75
-39 75 -59 0 -23 63 -36 91 -18 29 18 43 61 31 95 -9 26 -6 32 30 65 39 36 71
47 83 27 3 -5 19 -7 35 -3 l30 6 0 -60 0 -60 -57 -30 c-32 -16 -66 -28 -75
-26 -22 5 -23 -10 -3 -27 22 -18 19 -36 -22 -132 -31 -72 -42 -88 -60 -88 -17
0 -22 -6 -21 -27 0 -41 -19 -83 -39 -84 -50 -3 -57 -5 -60 -16 -3 -9 6 -13 27
-13 29 0 31 -2 26 -27 -3 -16 -8 -50 -11 -78 -6 -49 -6 -50 12 -29 10 12 23
30 29 40 7 12 22 18 47 18 29 0 37 4 37 18 0 12 6 18 17 16 10 -2 19 4 21 15
2 11 -3 17 -16 17 -30 0 -39 20 -34 73 3 39 7 47 21 42 13 -4 22 5 35 36 10
22 24 43 32 46 7 3 16 21 20 41 9 49 16 57 82 88 46 22 73 27 139 28 61 1 84
-3 88 -12 8 -21 6 -62 -3 -62 -15 0 -90 -125 -112 -188 -13 -35 -32 -69 -43
-77 -31 -21 -57 -72 -57 -110 0 -19 4 -35 8 -35 4 0 32 22 61 49 43 40 52 54
50 77 -2 18 7 45 23 69 37 59 96 176 103 207 4 15 15 30 25 33 11 3 33 19 49
35 26 23 31 36 31 74 0 25 5 46 10 46 6 0 15 11 22 24 13 30 27 37 92 46 l48
7 -6 -41 c-8 -45 -34 -79 -76 -96 -30 -12 -50 -47 -50 -85 0 -13 -12 -37 -26
-52 -29 -31 -124 -188 -124 -204 0 -6 -20 -34 -45 -62 -34 -38 -45 -58 -42
-76 8 -40 -12 -89 -40 -103 -44 -21 -75 -76 -68 -119 5 -27 2 -41 -10 -53 -30
-29 -87 -149 -102 -210 -8 -35 -21 -65 -33 -73 -22 -15 -36 -57 -44 -130 -6
-49 -5 -53 14 -53 12 0 25 12 35 33 9 17 27 52 41 76 14 24 22 51 19 62 -4 11
13 51 45 106 27 49 50 97 50 106 0 10 7 29 16 42 9 13 13 32 10 42 -4 14 3 23
29 37 22 12 37 29 41 45 3 14 9 33 14 42 4 8 4 23 -1 32 -13 22 13 71 62 119
31 30 39 46 39 73 0 32 58 144 111 213 10 13 21 36 24 53 4 16 16 34 28 40 41
21 97 82 97 106 0 14 18 43 41 68 38 41 46 45 88 45 25 -1 57 -7 71 -15 14 -8
34 -14 45 -15 68 -1 134 -55 118 -97 -6 -15 -4 -16 8 -6 8 6 44 23 81 38 126
50 116 74 -34 87 -74 6 -106 13 -115 25 -17 22 -61 43 -91 43 -14 0 -50 14
-79 30 -30 17 -62 28 -72 25 -11 -3 -24 5 -39 24 -23 31 -78 53 -111 44 -10
-2 -22 0 -25 6 -4 6 -18 11 -32 11 -14 0 -22 -4 -19 -10 3 -5 17 -10 31 -10
21 0 24 -4 24 -40 0 -50 -21 -61 -107 -53 -49 5 -66 2 -89 -14 -16 -10 -37
-23 -47 -28 -46 -24 3 -58 61 -43 81 21 82 21 88 3 4 -10 2 -26 -4 -36 -7 -10
-12 -25 -12 -34 0 -22 -86 -58 -109 -45 -33 17 -70 11 -93 -15 -24 -28 -38
-32 -38 -11 0 7 -14 16 -31 20 -26 5 -29 9 -24 28 4 13 16 30 28 38 59 42 89
80 83 104 -5 19 3 32 39 67 24 23 42 46 39 51 -3 4 -27 8 -54 8 -46 0 -53 -3
-91 -45 -42 -46 -56 -52 -87 -36 -92 45 -85 43 -137 24 -44 -17 -50 -23 -62
-62 -15 -54 -39 -81 -69 -81 -13 0 -26 -4 -29 -10 -14 -23 -95 -3 -95 24 0 7
-11 23 -25 36 -14 13 -25 29 -25 36 0 6 -8 22 -19 35 -15 19 -28 23 -77 23
l-58 1 -3 75 c-3 87 -7 100 -28 100 -9 0 -29 10 -45 21 -16 12 -46 25 -67 28
-36 6 -40 11 -73 78 -37 76 -44 83 -54 57z m1457 -388 c9 -22 -15 -37 -36 -22
-9 7 -17 18 -17 25 0 16 47 14 53 -3z"/>
<path d="M5370 3862 c0 -19 75 -62 110 -62 10 0 22 -4 25 -10 3 -5 17 -10 31
-10 20 0 24 5 24 30 0 33 -14 40 -24 13 -5 -13 -10 -9 -25 18 -17 32 -21 34
-80 37 -54 3 -61 1 -61 -16z"/>
<path d="M6426 3835 c-19 -14 -19 -15 0 -36 10 -11 31 -28 47 -37 23 -14 27
-22 23 -44 -5 -28 -5 -29 69 -76 11 -7 28 -15 38 -18 9 -4 17 -16 17 -29 0
-13 2 -30 6 -38 3 -9 -12 -25 -43 -45 -60 -39 -95 -75 -123 -128 -12 -25 -33
-47 -50 -54 -46 -19 -62 -44 -65 -105 -5 -79 -1 -78 123 37 33 31 40 52 22 63
-15 9 -12 25 4 25 17 0 166 159 166 177 0 6 14 14 30 18 63 14 54 65 -15 80
-47 10 -85 27 -85 36 0 5 10 14 23 20 12 5 38 19 57 29 43 24 60 24 102 4 26
-12 39 -13 63 -4 l29 11 -42 24 c-64 36 -77 38 -121 15 -40 -20 -139 -28 -176
-14 -14 6 -15 8 0 24 15 16 13 20 -23 49 -45 35 -50 36 -76 16z"/>
<path d="M5924 3809 c-16 -17 -16 -22 -4 -29 20 -13 37 -12 45 0 4 6 18 1 34
-11 23 -17 33 -19 49 -10 11 6 23 18 26 27 11 29 -13 44 -74 44 -45 0 -61 -4
-76 -21z"/>
<path d="M6162 3797 c-12 -13 -22 -33 -22 -44 0 -37 -11 -53 -59 -86 -64 -44
-92 -77 -86 -98 5 -14 -11 -35 -58 -79 -49 -45 -68 -71 -78 -105 -12 -39 -21
-50 -66 -75 -41 -23 -53 -36 -53 -54 0 -65 42 -74 110 -25 41 30 42 32 37 76
-4 35 -1 46 11 51 18 6 61 52 62 65 0 5 14 28 30 52 17 24 30 48 30 52 0 5 29
29 65 52 67 44 76 59 50 81 -13 11 -10 16 21 41 20 16 42 29 49 29 7 0 23 8
36 19 22 18 22 19 6 45 -22 33 -56 34 -85 3z"/>
<path d="M5143 3758 c-46 -51 -37 -98 21 -118 46 -15 69 -2 84 48 16 52 17 49
-28 72 -49 25 -52 25 -77 -2z"/>
<path d="M6300 3694 c-25 -25 -59 -54 -77 -65 -28 -18 -31 -23 -21 -39 10 -16
9 -23 -5 -37 -36 -36 -106 -142 -127 -192 -14 -32 -34 -58 -52 -69 -30 -17
-58 -62 -58 -92 0 -34 -31 -78 -80 -111 -42 -28 -50 -39 -50 -64 0 -22 -17
-53 -59 -108 -32 -42 -71 -97 -86 -122 -14 -25 -46 -65 -69 -89 -35 -35 -45
-52 -48 -87 -3 -24 -3 -47 -1 -51 7 -13 43 16 43 34 0 10 7 18 16 18 26 0 74
59 74 90 0 15 11 42 23 61 13 19 45 64 70 102 26 37 47 71 47 75 0 4 31 39 69
77 38 39 66 76 63 83 -8 22 19 61 83 115 39 34 59 58 57 69 -2 10 10 38 27 63
75 110 89 132 106 172 12 28 29 48 50 58 18 8 38 21 45 30 11 13 28 67 33 105
4 30 -30 18 -73 -26z"/>
<path d="M3867 3704 c-9 -10 4 -34 19 -34 16 0 16 2 8 24 -6 17 -16 20 -27 10z"/>
<path d="M3087 3682 c-29 -18 -43 -51 -33 -77 5 -13 10 -14 28 -4 41 21 58 42
58 71 0 32 -13 35 -53 10z"/>
<path d="M4877 3689 c-22 -13 -51 -69 -40 -78 4 -4 20 -12 35 -19 25 -10 28
-9 47 31 19 38 19 42 4 59 -18 21 -22 21 -46 7z"/>
<path d="M5300 3692 c0 -4 5 -13 12 -20 9 -9 7 -12 -11 -12 -39 0 -20 -30 38
-61 30 -16 62 -29 73 -29 11 0 28 -5 38 -10 15 -8 22 -5 34 12 33 47 25 55
-98 104 -63 25 -86 29 -86 16z"/>
<path d="M6811 3659 c-32 -34 -27 -54 18 -67 59 -18 99 -15 111 8 14 26 7 37
-34 54 -66 27 -74 28 -95 5z"/>
<path d="M3170 3645 c-17 -21 -3 -35 36 -35 39 0 44 12 12 34 -28 20 -32 20
-48 1z"/>
<path d="M3297 3626 c-16 -15 -27 -36 -27 -52 0 -24 2 -26 32 -20 44 9 70 34
66 65 -4 35 -37 38 -71 7z"/>
<path d="M5802 3629 c-13 -5 -22 -15 -20 -21 6 -19 125 -29 168 -15 46 15 45
14 30 32 -14 17 -138 20 -178 4z"/>
<path d="M6386 3632 c-3 -3 -6 -11 -6 -19 0 -10 21 -13 88 -12 l87 1 -35 16
c-35 16 -123 25 -134 14z"/>
<path d="M4165 3619 c-10 -15 3 -25 16 -12 7 7 7 13 1 17 -6 3 -14 1 -17 -5z"/>
<path d="M5084 3593 c-35 -52 -44 -75 -44 -109 0 -30 2 -33 18 -26 9 5 23 7
30 5 18 -7 40 14 63 60 24 45 22 83 -3 79 -9 -1 -19 2 -23 8 -10 16 -22 12
-41 -17z"/>
<path d="M7000 3606 c0 -9 40 -13 46 -5 3 5 -6 9 -20 9 -14 0 -26 -2 -26 -4z"/>
<path d="M5522 3495 c-40 -52 -72 -100 -73 -107 0 -7 -19 -27 -42 -43 -32 -23
-43 -38 -45 -63 -3 -31 -2 -32 33 -32 21 0 49 9 66 21 23 16 29 28 29 58 0 34
5 42 41 67 51 35 109 109 109 138 -1 23 -22 56 -37 56 -5 0 -42 -43 -81 -95z"/>
<path d="M6904 3536 c-8 -21 34 -73 64 -81 33 -8 37 -1 22 35 -20 49 -74 78
-86 46z"/>
<path d="M3000 3531 c-38 -9 -70 -34 -70 -53 0 -27 11 -48 27 -48 23 0 72 29
82 48 10 19 4 63 -8 61 -3 -1 -17 -4 -31 -8z"/>
<path d="M3832 3529 c-37 -11 -38 -32 -2 -37 22 -4 50 19 50 40 0 10 -5 9 -48
-3z"/>
<path d="M7200 3522 c0 -5 13 -18 30 -30 49 -37 69 -25 26 16 -23 22 -56 30
-56 14z"/>
<path d="M3200 3483 c-33 -23 -40 -33 -40 -65 0 -15 -4 -30 -10 -33 -16 -10
-100 -144 -100 -160 0 -7 -4 -17 -10 -20 -5 -3 -10 -15 -10 -25 0 -11 -11 -27
-24 -35 -28 -18 -51 -68 -42 -90 8 -21 20 -19 56 12 28 23 31 31 27 63 -4 30
0 41 25 65 16 17 39 50 50 75 11 25 27 62 36 82 10 20 28 42 42 48 50 22 78
90 40 98 -8 1 -26 -5 -40 -15z"/>
<path d="M3077 3484 c-4 -4 -7 -11 -7 -16 0 -13 50 -6 53 7 2 12 -36 19 -46 9z"/>
<path d="M6746 3418 c-65 -72 -79 -98 -52 -98 8 0 18 -5 22 -11 5 -9 -4 -10
-30 -5 -64 12 -132 -48 -113 -98 3 -8 25 -17 48 -21 39 -7 44 -5 71 25 15 18
28 43 28 55 0 15 28 50 83 104 l82 82 -25 19 c-14 11 -30 20 -37 20 -6 0 -41
-32 -77 -72z"/>
<path d="M3331 3467 c-13 -6 -32 -23 -42 -37 -21 -30 -35 -100 -19 -100 5 0
10 6 10 14 0 8 18 25 39 37 43 24 67 59 58 83 -8 19 -14 20 -46 3z"/>
<path d="M3445 3439 c-12 -19 5 -23 22 -6 16 16 16 17 1 17 -9 0 -20 -5 -23
-11z"/>
<path d="M3500 3424 c0 -9 5 -14 12 -12 18 6 21 28 4 28 -9 0 -16 -7 -16 -16z"/>
<path d="M2904 3393 c-15 -16 -33 -41 -41 -58 -9 -16 -21 -37 -28 -45 -14 -17
-26 -60 -17 -60 28 1 132 140 132 175 0 23 -18 18 -46 -12z"/>
<path d="M6975 3399 c-7 -11 43 -90 60 -94 5 -1 24 -6 41 -12 27 -9 35 -7 64
17 l33 27 35 -23 c19 -13 44 -24 56 -24 29 0 94 -35 131 -71 17 -16 38 -29 47
-29 36 0 28 24 -23 76 -51 52 -56 54 -94 49 -26 -4 -49 0 -65 9 -73 42 -92 48
-135 44 -36 -5 -51 -1 -77 18 -34 26 -63 31 -73 13z"/>
<path d="M3635 3360 c-21 -33 -45 -85 -45 -100 0 -8 -7 -24 -15 -34 -17 -23
-20 -76 -5 -76 6 0 15 11 20 24 5 13 14 27 19 31 6 3 11 17 11 31 0 14 7 39
16 55 17 34 17 96 -1 69z"/>
<path d="M3464 3336 c-33 -34 -54 -69 -54 -92 0 -12 -7 -24 -15 -28 -8 -3 -15
-15 -15 -26 0 -23 18 -27 25 -5 9 27 15 40 35 70 11 17 22 37 26 45 3 8 10 23
15 33 15 27 7 28 -17 3z"/>
<path d="M3714 3323 c-3 -15 -19 -66 -35 -113 -16 -46 -29 -92 -29 -101 0 -9
-7 -19 -15 -22 -31 -12 -74 -137 -47 -137 33 0 75 60 85 120 3 19 19 65 36
102 22 46 31 81 31 117 0 56 -16 77 -26 34z"/>
<path d="M3225 3297 c-65 -71 -99 -127 -77 -127 7 0 85 102 106 138 12 20 -7
13 -29 -11z"/>
<path d="M6210 3313 c-30 -9 -60 -27 -60 -34 0 -4 22 -10 49 -14 34 -5 59 -2
87 10 37 16 38 17 20 31 -19 14 -66 17 -96 7z"/>
<path d="M5552 3291 c-8 -4 -12 -17 -10 -27 2 -15 12 -18 53 -18 75 1 117 13
113 32 -3 14 -17 18 -73 20 -39 1 -76 -2 -83 -7z"/>
<path d="M4850 3231 c0 -11 -4 -23 -10 -26 -19 -12 -10 -22 33 -39 41 -15 98
-21 109 -11 10 11 -5 65 -18 65 -8 0 -17 7 -20 15 -4 10 -20 15 -50 15 -37 0
-44 -3 -44 -19z"/>
<path d="M6776 3215 c-20 -20 -20 -23 0 -43 15 -14 18 -14 35 9 10 13 17 29
15 34 -5 17 -33 17 -50 0z"/>
<path d="M3897 3203 c-22 -25 -85 -151 -97 -193 -6 -23 -20 -41 -41 -53 -29
-16 -31 -20 -25 -55 4 -20 9 -54 12 -74 4 -21 10 -38 14 -38 12 0 90 72 101
92 6 11 5 34 -3 64 l-13 46 36 32 c20 17 40 42 44 56 4 14 16 37 26 52 26 36
24 63 -6 76 -32 15 -29 15 -48 -5z"/>
<path d="M7097 3208 c-15 -11 -15 -18 -5 -53 7 -22 20 -46 30 -53 11 -8 18
-26 18 -45 0 -18 4 -48 9 -67 5 -19 12 -68 15 -107 3 -40 13 -87 22 -105 13
-24 14 -36 5 -50 -18 -29 -14 -112 7 -130 30 -26 67 -30 93 -9 l24 19 -19 56
c-11 31 -24 61 -31 66 -6 5 -9 30 -8 57 4 57 -14 184 -27 197 -6 6 -10 20 -10
32 0 27 -17 40 -45 35 -27 -4 -7 16 20 21 35 6 29 97 -9 127 -21 17 -71 22
-89 9z"/>
<path d="M2768 3198 c-21 -17 -33 -74 -18 -83 24 -15 58 5 70 40 6 19 9 39 5
45 -9 14 -38 13 -57 -2z"/>
<path d="M5049 3180 c-43 -43 -37 -74 15 -78 44 -4 81 23 89 63 10 53 -57 63
-104 15z"/>
<path d="M6893 3190 c-31 -14 -43 -25 -48 -48 -3 -16 -17 -40 -31 -52 -13 -13
-24 -27 -24 -32 0 -14 30 -9 36 6 4 10 24 13 76 12 l71 -1 9 32 c10 37 -3 78
-30 92 -13 7 -29 5 -59 -9z"/>
<path d="M5252 3157 c-12 -13 -25 -37 -28 -55 -6 -30 -5 -32 22 -34 59 -4 78
2 100 29 41 49 26 83 -36 83 -25 0 -43 -7 -58 -23z"/>
<path d="M3360 3153 c0 -5 -15 -24 -34 -44 -27 -28 -34 -44 -33 -72 1 -40 12
-49 22 -18 3 11 15 23 26 26 10 4 19 11 19 16 0 5 11 9 24 9 32 0 56 10 56 22
0 6 -11 8 -24 4 -25 -6 -36 7 -36 45 0 10 -4 19 -10 19 -5 0 -10 -3 -10 -7z"/>
<path d="M2856 3128 c-9 -12 -16 -26 -16 -30 0 -13 75 -9 94 5 17 13 17 14 -8
30 -34 23 -52 21 -70 -5z"/>
<path d="M3104 3132 c-50 -42 -63 -102 -18 -86 36 13 54 37 54 71 0 37 -6 40
-36 15z"/>
<path d="M7273 3143 c-29 -11 -13 -40 31 -57 57 -22 116 -31 116 -19 0 16 -43
50 -84 67 -41 17 -44 17 -63 9z"/>
<path d="M3228 3110 c-33 -27 -36 -33 -26 -55 12 -26 29 -24 66 8 24 22 31 77
9 77 -7 0 -29 -14 -49 -30z"/>
<path d="M5682 3133 c-33 -7 -71 -62 -65 -95 5 -25 10 -28 47 -28 23 0 51 7
63 15 23 16 45 67 34 81 -6 9 -49 35 -53 33 -2 -1 -13 -4 -26 -6z"/>
<path d="M6279 3117 c-44 -38 -62 -78 -49 -111 9 -25 14 -28 42 -22 40 8 66
31 84 75 17 41 11 67 -19 75 -30 8 -29 8 -58 -17z"/>
<path d="M3519 3107 c-37 -31 -49 -59 -43 -99 l6 -35 39 36 c43 41 56 78 37
103 -12 16 -15 15 -39 -5z"/>
<path d="M5420 3115 c-34 -41 14 -64 106 -50 35 5 42 9 42 30 0 27 -20 35 -89
35 -29 0 -51 -6 -59 -15z"/>
<path d="M6056 3108 c-9 -12 -16 -27 -16 -33 0 -26 133 -55 155 -34 3 4 -4 25
-16 48 -20 38 -24 41 -64 41 -34 0 -47 -5 -59 -22z"/>
<path d="M6488 3110 c-26 -16 -58 -74 -52 -96 7 -26 77 -59 99 -47 18 11 55
80 55 105 0 11 -14 24 -36 33 -42 17 -44 18 -66 5z"/>
<path d="M7463 3093 c-22 -8 -15 -30 27 -90 31 -45 40 -67 40 -100 0 -23 4
-52 9 -65 27 -71 44 -152 45 -218 1 -66 5 -81 31 -120 31 -46 33 -58 19 -148
-8 -52 0 -86 26 -112 15 -15 18 -25 11 -38 -11 -20 4 -262 19 -306 8 -24 7
-31 -9 -43 -47 -32 9 -187 57 -157 36 23 41 124 6 158 -12 13 -13 20 -3 37 7
14 9 41 5 73 -28 220 -32 262 -25 271 17 18 9 78 -14 109 -33 44 -50 116 -32
136 17 19 5 92 -20 120 -9 10 -21 47 -25 82 -11 81 -37 160 -75 228 -9 17 -11
31 -5 40 35 55 -31 162 -87 143z"/>
<path d="M4998 3063 c-40 -47 -118 -153 -118 -162 0 -22 -31 -65 -63 -86 -43
-30 -66 -80 -46 -100 39 -39 148 42 133 99 -5 20 1 32 28 58 43 41 122 174
114 194 -7 19 -30 18 -48 -3z"/>
<path d="M5192 3038 c-7 -7 -12 -17 -12 -23 0 -6 -14 -24 -30 -40 -38 -36 -90
-116 -90 -138 0 -9 -20 -30 -44 -46 -50 -35 -68 -83 -41 -110 14 -14 20 -13
63 9 42 22 48 31 59 72 8 33 30 71 71 122 77 95 97 132 81 152 -14 17 -41 18
-57 2z"/>
<path d="M6935 3042 c-11 -2 -23 -9 -27 -16 -11 -16 -10 -74 2 -96 5 -10 12
-55 15 -101 5 -87 8 -96 40 -99 43 -5 43 -5 40 126 -3 97 -7 130 -19 143 -9
10 -16 23 -16 29 0 15 -11 19 -35 14z"/>
<path d="M6630 3012 c0 -10 -5 -23 -10 -28 -16 -16 40 -65 68 -57 12 3 22 11
22 18 0 7 7 18 15 25 23 19 19 50 -7 51 -13 0 -38 2 -55 5 -27 3 -33 0 -33
-14z"/>
<path d="M7607 3003 c-11 -11 -8 -35 7 -52 7 -9 18 -29 23 -45 12 -39 31 -44
39 -12 4 18 -2 39 -20 71 -26 44 -36 52 -49 38z"/>
<path d="M5586 2965 c-57 -69 -105 -143 -108 -171 -2 -19 -13 -33 -38 -47 -58
-31 -80 -57 -80 -93 0 -18 5 -34 12 -36 28 -10 73 7 105 40 29 29 34 40 29 64
-5 24 -1 34 24 54 36 31 120 155 120 179 0 14 -22 45 -32 45 -2 0 -16 -16 -32
-35z"/>
<path d="M3263 2978 c-4 -8 -22 -25 -39 -37 -26 -19 -32 -31 -36 -71 -3 -28
-14 -59 -26 -75 -12 -15 -22 -34 -22 -41 0 -7 -11 -29 -24 -49 -13 -19 -32
-60 -42 -91 -10 -33 -26 -62 -40 -70 -34 -23 -43 -64 -35 -157 2 -15 21 4 21
19 0 9 16 35 36 59 30 37 35 49 29 75 -4 19 -3 30 4 30 14 0 87 159 108 235 4
11 19 31 36 45 22 20 31 38 38 80 9 56 7 71 -8 48z"/>
<path d="M2760 2940 c0 -28 3 -30 34 -30 44 0 56 18 26 42 -35 28 -60 24 -60
-12z"/>
<path d="M2877 2947 c-23 -18 -27 -27 -22 -50 9 -34 24 -34 59 -2 18 16 26 33
24 48 -4 30 -27 32 -61 4z"/>
<path d="M2979 2947 c-15 -12 -29 -34 -33 -49 -6 -25 -3 -28 17 -28 31 0 70
42 65 71 -4 31 -18 32 -49 6z"/>
<path d="M6212 2956 c-43 -66 -125 -239 -124 -261 1 -13 -12 -28 -37 -44 -31
-19 -40 -32 -45 -62 -3 -20 -3 -44 0 -52 9 -25 -22 -83 -60 -112 -20 -15 -36
-34 -36 -41 0 -8 -5 -14 -11 -14 -7 0 -9 -17 -4 -51 4 -31 3 -54 -2 -58 -15
-9 -102 -199 -112 -243 -8 -35 -7 -41 10 -45 10 -3 16 -10 13 -15 -3 -5 -13
-7 -21 -4 -25 10 -60 -23 -73 -69 -17 -59 -3 -77 53 -73 33 2 44 9 58 33 20
34 24 78 10 104 -7 13 -2 33 19 77 17 32 30 65 30 73 0 8 9 39 19 70 11 31 22
73 26 93 3 23 16 46 33 60 32 27 58 83 54 115 -4 28 24 80 61 111 33 29 65 90
60 114 -3 10 18 55 45 100 53 89 92 168 92 185 0 15 -49 23 -58 9z"/>
<path d="M3130 2942 c-14 -9 -28 -21 -32 -27 -11 -15 -10 -53 2 -60 16 -10 70
54 70 81 0 28 -6 29 -40 6z"/>
<path d="M6402 2921 c-11 -9 -28 -36 -37 -61 -39 -107 -46 -123 -60 -137 -8
-8 -15 -23 -15 -33 0 -10 -13 -29 -29 -42 -48 -38 -61 -76 -52 -144 5 -32 7
-62 5 -66 -2 -3 -18 -9 -34 -13 -35 -8 -80 -58 -80 -89 0 -13 9 -31 21 -42
l21 -19 -26 -20 c-35 -28 -126 -238 -126 -292 0 -7 -13 -26 -28 -41 -35 -34
-48 -85 -27 -102 21 -17 19 -39 -8 -81 -43 -69 -81 -109 -93 -98 -7 6 -15 5
-22 -4 -9 -10 -6 -22 13 -47 30 -41 32 -76 5 -98 -17 -14 -24 -40 -36 -135
-10 -77 -22 -130 -35 -150 -12 -21 -19 -50 -19 -83 l0 -52 42 -4 c35 -3 47 0
65 20 30 33 32 96 3 114 -23 15 -27 48 -5 48 8 0 15 6 15 13 0 6 7 25 16 42 8
16 18 64 21 107 3 43 10 81 15 84 4 3 8 18 8 34 0 25 6 32 36 45 32 13 35 17
23 31 -10 13 -10 17 2 25 21 13 27 11 40 -13 9 -16 9 -23 0 -26 -6 -2 -11 -9
-11 -16 0 -14 53 -56 70 -56 14 0 30 43 30 81 0 26 -4 29 -38 35 -21 3 -49 14
-62 24 -36 27 -33 88 7 138 22 28 34 59 47 127 9 49 24 97 32 106 8 8 14 24
14 35 0 10 7 28 15 38 8 11 15 31 15 45 0 14 7 35 15 45 8 11 15 27 15 36 0 9
14 29 30 45 17 16 30 35 30 43 0 7 5 23 12 35 6 12 11 40 9 62 -2 34 3 46 35
78 46 47 64 80 64 118 0 22 -5 29 -20 29 -11 0 -20 5 -20 11 0 6 12 9 26 7 31
-4 65 39 119 152 43 91 43 122 -1 125 -17 1 -40 -5 -52 -14z"/>
<path d="M3405 2896 c-11 -9 -39 -16 -62 -16 -60 0 -76 -28 -17 -32 17 0 38
-11 51 -27 l22 -25 28 20 c21 16 28 30 28 55 0 39 -19 48 -50 25z"/>
<path d="M3509 2869 c-17 -17 -20 -30 -17 -67 3 -36 -1 -55 -19 -84 -29 -47
-60 -138 -69 -203 -5 -34 -16 -61 -35 -83 -23 -26 -29 -42 -28 -75 1 -23 -2
-53 -6 -66 -6 -18 -5 -23 6 -19 7 2 16 15 19 28 3 13 22 34 42 47 l37 23 16
-30 c15 -29 60 -60 89 -60 11 0 13 8 9 38 -7 46 -18 58 -63 69 -22 6 -41 19
-50 36 -13 24 -13 31 3 74 10 27 28 80 39 118 11 39 25 87 31 108 6 21 18 42
27 47 28 15 45 67 32 95 -14 31 -35 32 -63 4z"/>
<path d="M4170 2860 c-38 -5 -54 -35 -25 -46 16 -6 85 24 85 37 0 12 -24 15
-60 9z"/>
<path d="M4558 2824 c-14 -13 -9 -52 7 -58 36 -13 113 -18 134 -7 24 13 27 33
9 49 -16 13 -140 26 -150 16z"/>
<path d="M3618 2795 c-6 -27 1 -32 19 -14 12 12 7 39 -7 39 -4 0 -10 -11 -12
-25z"/>
<path d="M2892 2770 c-14 -25 -18 -41 -11 -45 6 -4 13 2 16 14 3 12 9 21 13
21 10 0 20 39 11 44 -3 2 -16 -13 -29 -34z"/>
<path d="M2817 2793 c-10 -10 -8 -43 2 -43 9 0 21 24 21 41 0 11 -14 12 -23 2z"/>
<path d="M3054 2775 c-3 -14 -10 -25 -14 -25 -12 0 -50 -77 -50 -100 0 -11 5
-20 10 -20 12 0 49 76 50 98 0 7 7 20 15 28 17 17 20 44 5 44 -5 0 -12 -11
-16 -25z"/>
<path d="M3356 2737 c-14 -24 -29 -59 -32 -78 -4 -19 -12 -41 -19 -49 -7 -8
-21 -38 -30 -65 -22 -61 -77 -110 -106 -95 -24 13 -29 13 -29 -5 0 -10 10 -15
28 -15 20 0 32 -8 44 -30 20 -35 25 -36 55 -12 16 12 25 32 29 67 4 28 15 68
25 90 10 22 22 56 28 75 5 19 19 60 30 90 24 62 25 70 11 70 -5 0 -21 -19 -34
-43z"/>
<path d="M3696 2745 c-15 -11 -19 -26 -18 -75 1 -34 -5 -72 -14 -87 -7 -16
-14 -34 -14 -41 0 -7 -4 -20 -10 -30 -17 -30 -41 -175 -30 -182 5 -3 -4 -17
-20 -30 -30 -25 -36 -51 -24 -97 9 -34 33 -36 65 -4 32 33 37 65 14 98 -14 20
-14 26 3 60 11 21 23 60 26 86 4 27 16 63 27 82 11 19 22 46 23 62 2 19 12 32
29 41 15 7 27 21 27 32 0 10 7 23 16 28 15 8 14 13 -7 41 -25 34 -61 40 -93
16z"/>
<path d="M5158 2739 c-52 -30 29 -67 135 -61 23 2 27 6 27 31 0 24 -5 29 -31
35 -47 9 -112 7 -131 -5z"/>
<path d="M7700 2720 c0 -17 7 -47 16 -68 8 -20 15 -59 15 -87 0 -36 9 -68 32
-115 28 -56 32 -74 30 -133 -2 -53 2 -78 18 -109 14 -28 19 -51 15 -72 -4 -18
1 -55 10 -85 11 -38 16 -97 16 -200 0 -82 5 -155 11 -166 17 -33 18 -117 0
-130 -12 -9 -14 -25 -9 -81 7 -88 7 -78 2 -277 -3 -137 -6 -171 -20 -186 -24
-26 -21 -103 4 -126 24 -22 25 -38 5 -55 -9 -7 -14 -18 -12 -24 3 -6 -4 -25
-14 -42 -10 -17 -20 -53 -21 -79 -3 -44 0 -50 24 -64 20 -12 34 -13 55 -5 25
8 28 15 31 61 3 48 1 53 -28 74 -33 25 -38 50 -15 69 8 7 15 18 15 25 0 6 9
20 20 30 24 22 28 110 6 140 -10 14 -11 25 -4 38 5 11 8 87 7 179 -2 141 -1
161 14 170 24 13 23 88 -2 128 -20 34 -19 105 2 148 8 16 8 39 -1 85 -6 34
-14 96 -17 137 -3 41 -9 89 -14 105 -14 47 -21 164 -11 170 19 11 10 49 -26
114 -31 55 -36 75 -36 123 1 42 -5 69 -22 100 -13 24 -27 68 -30 98 -7 57 -41
140 -57 140 -5 0 -9 -14 -9 -30z"/>
<path d="M2778 2683 c-19 -41 -15 -57 7 -27 12 16 22 65 13 64 -2 -1 -11 -17
-20 -37z"/>
<path d="M3888 2693 c-33 -38 -40 -63 -28 -94 11 -24 10 -33 -6 -56 -52 -79
-84 -161 -89 -229 -1 -12 -11 -34 -23 -49 -30 -38 -37 -72 -23 -111 7 -19 9
-38 6 -44 -13 -21 7 -8 34 22 24 27 31 30 44 20 19 -16 64 0 69 25 2 10 12 18
23 18 23 0 28 30 5 30 -8 0 -21 4 -28 8 -7 5 -25 7 -39 5 -49 -6 -41 34 38
184 11 22 19 57 19 87 0 54 19 75 62 69 28 -4 43 35 22 57 -9 9 -13 22 -10 30
5 14 -28 45 -50 45 -6 0 -18 -8 -26 -17z"/>
<path d="M5746 2701 c-4 -5 0 -13 8 -18 8 -4 16 -21 18 -37 2 -25 9 -31 38
-39 19 -5 39 -13 45 -18 5 -5 26 -9 47 -9 33 0 37 3 35 22 -1 16 5 23 23 28
23 7 22 9 -25 29 -27 13 -70 26 -95 31 -25 5 -55 11 -66 15 -12 4 -25 2 -28
-4z"/>
<path d="M2844 2686 c-8 -21 3 -49 16 -41 5 3 10 15 10 25 0 25 -18 36 -26 16z"/>
<path d="M6931 2686 c-16 -20 -22 -95 -10 -119 9 -16 18 -18 57 -12 26 3 53
14 60 23 13 17 16 79 6 106 -8 21 -96 22 -113 2z"/>
<path d="M4160 2660 c-25 -27 -30 -28 -58 -18 -36 14 -82 -1 -82 -27 0 -20 48
-31 71 -16 27 16 34 14 48 -15 10 -23 16 -26 44 -20 53 10 80 60 61 110 -10
26 -53 19 -84 -14z"/>
<path d="M4950 2650 c0 -5 7 -10 15 -10 8 0 15 5 15 10 0 6 -7 10 -15 10 -8 0
-15 -4 -15 -10z"/>
<path d="M6522 2635 c-7 -14 -12 -31 -12 -37 0 -6 -16 -28 -36 -50 -31 -35
-35 -44 -32 -86 l3 -47 47 0 c69 -1 77 22 66 194 -3 51 -19 63 -36 26z"/>
<path d="M7378 2644 c-5 -4 -8 -19 -8 -34 0 -25 4 -28 48 -34 26 -3 58 -9 72
-12 23 -5 26 -2 25 22 -1 15 -10 33 -21 41 -24 16 -106 28 -116 17z"/>
<path d="M4714 2630 c-37 -15 -64 -59 -64 -105 0 -26 -6 -47 -16 -55 -36 -30
-114 -199 -114 -246 0 -15 -12 -30 -35 -44 -19 -12 -35 -30 -35 -40 0 -10 -6
-20 -12 -23 -23 -8 14 -62 44 -65 36 -4 83 62 76 109 -4 23 8 54 49 132 30 56
62 127 72 157 13 45 23 59 52 74 44 24 61 56 45 88 -13 26 -31 31 -62 18z"/>
<path d="M6752 2623 c-13 -3 -26 -12 -29 -21 -10 -26 -25 -32 -59 -26 -28 5
-32 3 -38 -21 -9 -34 -1 -45 34 -45 35 0 176 37 202 54 25 15 22 36 -5 36 -13
0 -32 7 -43 15 -20 15 -23 15 -62 8z"/>
<path d="M4450 2611 c0 -6 5 -13 10 -16 8 -5 8 -11 1 -19 -17 -21 -2 -26 72
-26 l70 0 -19 21 c-14 16 -15 23 -6 26 33 12 5 23 -58 23 -38 0 -70 -4 -70 -9z"/>
<path d="M4897 2603 c-23 -6 -54 -71 -49 -105 3 -24 8 -28 34 -28 22 0 39 10
64 37 19 20 36 45 40 55 12 38 -29 57 -89 41z"/>
<path d="M2689 2571 c-29 -29 -38 -64 -20 -76 14 -8 81 64 81 87 0 27 -28 22
-61 -11z"/>
<path d="M2965 2589 c-79 -65 -78 -64 -71 -102 4 -20 10 -38 14 -41 4 -2 22
16 40 39 26 34 33 52 30 78 -2 21 -7 31 -13 26z"/>
<path d="M2800 2583 c-26 -11 -49 -48 -50 -80 0 -18 5 -33 10 -33 6 0 10 6 10
13 0 7 11 23 25 35 14 13 25 33 25 47 0 14 -1 25 -2 24 -2 0 -10 -3 -18 -6z"/>
<path d="M5040 2560 c-7 -28 -4 -66 4 -72 6 -4 23 -8 38 -8 15 0 29 -4 33 -9
3 -6 23 -9 45 -8 30 1 40 5 40 18 0 10 3 24 6 33 9 23 -68 43 -108 28 -27 -10
-33 -9 -44 6 -7 9 -14 15 -14 12z"/>
<path d="M5292 2537 c-32 -18 -54 -66 -50 -107 4 -28 -1 -39 -24 -58 -15 -13
-28 -30 -28 -38 0 -8 -20 -54 -45 -102 -25 -48 -45 -93 -45 -99 0 -8 13 -13
30 -13 24 0 33 6 43 28 6 15 17 33 24 40 7 7 13 20 13 28 0 8 10 31 23 52 34
53 49 102 37 117 -12 15 -3 25 23 25 27 0 87 66 87 96 0 17 -8 27 -26 34 -31
12 -34 12 -62 -3z"/>
<path d="M5506 2521 c-39 -26 -69 -75 -61 -100 8 -27 69 -44 97 -28 19 12 58
80 58 102 0 16 -33 45 -51 45 -8 0 -27 -9 -43 -19z"/>
<path d="M7268 2533 c-10 -3 -18 -8 -18 -13 0 -13 33 -21 44 -10 13 13 -3 28
-26 23z"/>
<path d="M4127 2518 c-10 -8 -22 -39 -28 -73 -23 -128 -38 -163 -96 -224 -36
-37 -45 -89 -19 -110 11 -10 21 -5 50 24 32 31 36 42 36 85 0 38 7 62 30 99
17 27 33 66 35 88 3 21 8 57 11 81 7 46 6 48 -19 30z"/>
<path d="M3129 2484 c-12 -14 -11 -16 5 -13 11 2 21 10 24 17 5 17 -13 15 -29
-4z"/>
<path d="M5650 2446 c0 -14 -4 -26 -10 -26 -5 0 -10 -4 -10 -10 0 -5 7 -10 15
-10 7 0 18 -6 22 -14 10 -17 156 -56 183 -49 20 5 52 57 42 67 -3 3 -13 6 -23
6 -10 0 -22 7 -27 16 -9 16 -58 30 -144 41 -47 5 -48 5 -48 -21z"/>
<path d="M7208 2459 c-13 -7 -18 -23 -18 -58 0 -56 17 -76 71 -84 24 -3 42 0
56 11 20 15 21 21 12 64 -6 26 -17 52 -25 59 -19 16 -74 20 -96 8z"/>
<path d="M4819 2437 c-8 -12 -37 -66 -63 -119 -52 -106 -54 -134 -9 -133 23 0
32 9 57 60 16 33 42 89 57 125 25 59 26 66 11 78 -22 17 -35 15 -53 -11z"/>
<path d="M6995 2443 c-47 -7 -65 -30 -65 -83 0 -61 15 -74 75 -65 57 9 75 32
68 88 -5 37 -26 70 -42 66 -3 -1 -19 -4 -36 -6z"/>
<path d="M2650 2400 c-20 -21 -24 -34 -20 -61 4 -30 9 -34 35 -34 28 0 30 3
30 35 1 19 -4 47 -10 61 l-10 26 -25 -27z"/>
<path d="M7420 2410 c-13 -9 -13 -12 3 -21 18 -10 18 -12 -3 -26 -20 -14 -20
-16 -5 -33 20 -23 121 -38 137 -22 8 8 8 15 -1 25 -6 8 -9 22 -5 31 5 12 0 16
-18 16 -13 0 -31 9 -41 20 -18 22 -43 25 -67 10z"/>
<path d="M2722 2388 c-13 -13 -16 -66 -6 -92 10 -26 31 -18 43 15 15 45 14 76
-5 83 -20 8 -18 8 -32 -6z"/>
<path d="M6765 2370 c-3 -5 -18 -10 -33 -10 -15 -1 -47 -11 -72 -23 -35 -17
-46 -28 -48 -49 -5 -40 29 -50 110 -36 68 12 112 28 143 54 14 11 16 18 8 21
-7 3 -13 16 -13 29 0 22 -4 24 -44 24 -25 0 -48 -4 -51 -10z"/>
<path d="M2853 2356 c-18 -8 -23 -19 -23 -46 0 -51 18 -66 47 -38 16 15 23 33
23 60 0 40 -8 44 -47 24z"/>
<path d="M2973 2355 c-46 -32 -66 -125 -27 -125 27 0 54 20 54 40 0 10 5 22
11 26 11 6 4 52 -10 66 -4 4 -16 1 -28 -7z"/>
<path d="M5419 2337 c-9 -12 -20 -33 -24 -47 -4 -14 -12 -32 -19 -40 -25 -33
-36 -61 -36 -89 0 -17 -4 -33 -10 -36 -21 -13 -10 -35 18 -35 15 0 33 -5 40
-12 6 -6 13 -10 15 -7 16 18 107 258 107 279 0 6 -17 10 -37 10 -28 -1 -42 -7
-54 -23z"/>
<path d="M3210 2329 c0 -11 -16 -35 -35 -53 -39 -38 -44 -68 -16 -105 17 -23
19 -23 45 -6 25 17 26 20 24 101 -2 46 -6 84 -10 84 -5 0 -8 -9 -8 -21z"/>
<path d="M6300 2343 c1 -14 27 -43 38 -43 18 0 24 20 12 35 -13 15 -50 21 -50
8z"/>
<path d="M6493 2319 c-40 -20 -55 -41 -69 -101 -4 -21 -1 -29 17 -38 26 -14
88 0 114 26 25 25 15 134 -13 134 -4 0 -26 -9 -49 -21z"/>
<path d="M6230 2292 c0 -7 50 -35 83 -46 23 -7 22 -27 -3 -59 -34 -43 -61
-114 -54 -141 3 -15 0 -33 -9 -47 -9 -12 -13 -27 -10 -35 3 -7 -3 -36 -12 -64
-19 -57 -14 -120 10 -120 22 0 18 -18 -10 -52 -29 -35 -40 -68 -31 -103 10
-37 39 -31 81 18 20 23 46 44 58 47 16 5 22 13 22 35 0 27 -3 30 -28 27 -34
-4 -60 15 -52 36 3 9 8 67 11 130 5 101 9 122 34 173 16 32 34 60 39 63 8 6
-9 68 -30 107 -12 23 -99 50 -99 31z"/>
<path d="M3062 2273 c-21 -15 -22 -17 -6 -34 24 -26 58 -25 51 1 -3 11 -1 23
4 26 5 3 9 9 9 15 0 14 -32 10 -58 -8z"/>
<path d="M7275 2270 c-3 -5 -12 -7 -20 -4 -27 11 -35 -32 -30 -160 2 -69 6
-130 9 -134 2 -4 22 -6 44 -4 l40 4 5 51 c7 74 -3 197 -20 230 -15 29 -19 32
-28 17z"/>
<path d="M3306 2235 c-33 -31 -36 -92 -6 -120 20 -18 21 -18 48 2 35 26 39 61
12 107 -12 20 -23 36 -25 36 -1 0 -14 -11 -29 -25z"/>
<path d="M7010 2235 c-6 -17 -16 -25 -27 -23 -16 3 -19 -9 -24 -87 -7 -96 -2
-172 12 -181 14 -8 49 15 50 34 0 12 3 10 10 -7 7 -19 12 -22 21 -13 13 13 14
185 2 260 -8 48 -29 56 -44 17z"/>
<path d="M2815 2173 c-4 -16 -13 -40 -21 -55 -15 -29 -19 -88 -5 -88 5 0 11
17 15 39 3 21 13 51 21 67 8 16 15 37 15 47 0 27 -19 20 -25 -10z"/>
<path d="M2910 2178 c-39 -96 -60 -161 -66 -199 -4 -24 -15 -52 -25 -61 -33
-32 -34 -86 -2 -137 1 -2 13 10 27 25 21 24 26 39 25 84 -1 37 6 71 22 105 17
39 59 181 59 201 0 2 -7 4 -15 4 -9 0 -20 -10 -25 -22z"/>
<path d="M4286 2166 c-21 -18 -36 -38 -32 -44 3 -6 27 -14 52 -18 49 -7 66 2
78 43 6 18 1 25 -23 37 -17 9 -31 16 -33 16 -2 -1 -21 -16 -42 -34z"/>
<path d="M4684 2155 c-12 -8 -29 -30 -38 -49 -41 -88 53 -128 104 -44 24 40
25 71 4 92 -19 20 -43 20 -70 1z"/>
<path d="M3405 2134 c-9 -14 -15 -26 -13 -27 2 -1 17 -12 35 -25 18 -12 44
-22 58 -22 23 0 25 4 25 40 0 37 -2 40 -37 49 -50 14 -48 15 -68 -15z"/>
<path d="M6531 2136 c-7 -9 -19 -16 -25 -16 -7 0 -21 -6 -32 -14 -15 -11 -19
-28 -21 -78 -6 -173 -12 -220 -27 -237 -17 -19 -22 -81 -6 -81 15 0 34 -42 32
-71 -2 -23 3 -27 28 -31 42 -6 53 4 45 42 -6 26 -3 34 14 46 17 12 21 26 21
69 0 61 -15 77 -64 68 -39 -8 -31 14 14 39 19 10 38 26 42 36 9 23 9 202 -1
225 -6 17 -8 17 -20 3z m-21 -465 c0 -13 -26 -32 -33 -24 -14 13 -6 33 13 33
11 0 20 -4 20 -9z"/>
<path d="M3134 2083 c-37 -100 -44 -128 -44 -174 0 -41 -3 -47 -33 -61 -30
-14 -33 -20 -30 -50 10 -81 22 -96 67 -79 31 12 41 72 20 114 -13 23 -13 31
-3 37 23 15 50 105 56 188 3 46 2 82 -3 82 -5 0 -19 -26 -30 -57z"/>
<path d="M4836 2086 c4 -18 1 -25 -17 -29 -22 -6 -22 -7 -4 -27 20 -22 55 -25
106 -9 101 32 104 57 9 75 -96 19 -101 18 -94 -10z"/>
<path d="M3549 2081 c-24 -13 -26 -19 -21 -55 2 -23 8 -48 13 -57 8 -15 -40
-158 -62 -185 -5 -6 -10 -38 -11 -71 -3 -55 -6 -63 -31 -80 -26 -17 -28 -21
-23 -68 4 -27 7 -60 9 -72 1 -13 3 -23 5 -23 1 0 19 18 39 41 31 35 41 40 72
37 l36 -3 -2 -65 c-1 -42 1 -56 5 -40 6 19 15 25 38 26 66 2 75 4 68 16 -5 7
-7 25 -6 40 3 35 -14 45 -29 17 -19 -37 -31 0 -18 57 6 27 12 66 14 88 1 23 9
42 19 48 10 5 16 22 16 41 0 18 4 37 9 42 5 6 11 28 13 50 3 40 3 40 48 43 25
1 71 6 102 10 44 6 61 5 71 -6 12 -11 19 -9 45 13 36 30 40 50 16 76 -13 15
-21 16 -42 7 -15 -6 -43 -14 -62 -18 -19 -4 -43 -11 -52 -15 -13 -5 -18 -2
-18 9 0 25 -29 31 -44 10 -12 -16 -14 -14 -21 24 -9 53 -20 60 -51 31 -27 -25
-32 -71 -12 -126 10 -28 9 -38 -9 -75 -11 -24 -26 -59 -32 -79 -9 -29 -18 -38
-42 -43 -25 -5 -30 -9 -23 -23 13 -28 10 -89 -5 -107 -24 -29 -57 -20 -74 21
-16 40 -6 83 19 83 20 0 26 17 29 74 1 28 9 66 19 83 9 18 16 44 16 59 0 14
11 39 25 56 32 38 32 63 -2 97 -26 25 -30 26 -54 12z"/>
<path d="M5074 2090 c-23 -9 -44 -56 -44 -97 0 -16 8 -27 26 -33 42 -16 52
-12 79 35 22 36 25 50 18 72 -10 30 -41 39 -79 23z"/>
<path d="M3293 2083 c-21 -8 -63 -158 -63 -223 0 -39 -5 -62 -14 -67 -7 -4
-21 -25 -30 -45 -16 -34 -16 -40 -3 -67 8 -17 13 -40 10 -51 -4 -14 0 -20 11
-20 9 0 16 8 16 20 0 13 10 24 26 31 26 9 27 10 20 83 -4 45 -3 77 3 80 5 4
13 28 16 54 4 26 13 67 21 91 15 47 19 122 7 120 -5 0 -14 -3 -20 -6z"/>
<path d="M3960 2063 c0 -22 2 -25 10 -13 13 20 13 40 0 40 -5 0 -10 -12 -10
-27z"/>
<path d="M5288 2043 c-23 -12 -28 -21 -28 -51 0 -71 8 -82 55 -82 29 0 47 6
59 19 23 26 32 93 15 108 -23 18 -73 21 -101 6z"/>
<path d="M4063 1995 c-25 -17 -41 -81 -25 -97 10 -10 41 3 70 29 17 16 87 14
131 -3 44 -18 71 -18 71 1 0 30 -47 48 -111 42 -56 -5 -61 -4 -71 19 -13 28
-34 31 -65 9z"/>
<path d="M5442 1991 c-10 -6 -9 -14 3 -37 8 -16 15 -34 15 -41 0 -17 33 -33
57 -27 11 3 25 -1 32 -10 15 -18 48 -21 71 -6 8 5 11 10 5 10 -5 1 2 8 18 16
15 8 27 18 27 22 0 15 -67 52 -94 52 -15 0 -35 4 -44 9 -27 13 -77 20 -90 12z"/>
<path d="M4410 1969 c-40 -16 -82 -68 -74 -91 7 -22 5 -22 -66 -6 -26 6 -23
-41 3 -66 l26 -24 27 29 c17 18 39 29 63 31 27 2 40 11 58 37 28 41 28 53 6
79 -15 17 -23 19 -43 11z"/>
<path d="M2734 1940 c-28 -11 -38 -68 -16 -93 19 -22 34 -10 51 42 14 42 -1
64 -35 51z"/>
<path d="M7225 1919 c-22 -42 -20 -116 4 -129 23 -12 81 -13 97 -2 16 11 25
104 11 123 -7 8 -31 20 -55 26 -41 11 -43 10 -57 -18z"/>
<path d="M4573 1921 c-26 -22 -44 -81 -31 -104 7 -14 2 -18 -31 -23 -35 -6
-41 -11 -54 -48 -38 -108 -42 -280 -8 -320 15 -18 15 -18 -8 -11 -14 4 -33 2
-47 -6 -22 -11 -24 -18 -20 -63 5 -47 18 -68 49 -79 17 -5 -2 -27 -24 -27 -18
0 -26 -20 -13 -32 8 -9 64 25 64 38 0 6 9 19 19 28 11 10 21 30 23 44 5 40 22
36 46 -12 23 -44 38 -56 73 -56 10 0 19 -4 19 -10 0 -15 47 -12 73 4 12 7 33
16 47 19 21 5 29 -1 52 -39 23 -38 32 -44 60 -44 64 0 75 8 82 57 9 64 -5 83
-59 83 -24 0 -55 -5 -68 -11 -19 -8 -38 -6 -91 10 -38 12 -87 21 -110 21 -22
0 -59 6 -80 14 -40 14 -71 53 -56 71 4 5 10 26 13 45 9 55 26 141 38 186 8 31
8 47 0 63 -10 18 -8 25 16 46 15 13 40 25 54 25 32 0 41 11 59 67 12 39 11 45
-5 63 -22 25 -53 25 -82 1z"/>
<path d="M8100 1895 c0 -15 4 -24 10 -20 6 3 10 12 10 20 0 8 -4 17 -10 20 -6
4 -10 -5 -10 -20z"/>
<path d="M6946 1881 c-30 -32 -31 -61 -1 -108 12 -18 21 -20 57 -16 57 8 64
15 71 73 9 72 3 80 -52 80 -39 0 -52 -5 -75 -29z"/>
<path d="M5256 1892 c-3 -3 -6 -20 -6 -37 0 -26 -7 -37 -35 -56 -25 -17 -35
-32 -35 -50 0 -15 -7 -32 -16 -39 -8 -8 -14 -25 -12 -39 3 -22 10 -27 51 -35
52 -9 77 2 77 35 0 11 11 25 26 31 25 12 26 15 20 63 -3 27 -6 62 -6 77 0 19
-8 30 -29 41 -17 8 -32 12 -35 9z m42 -80 c2 -7 -3 -12 -12 -12 -9 0 -16 7
-16 16 0 17 22 14 28 -4z"/>
<path d="M7411 1881 c-24 -15 13 -81 45 -81 13 0 41 -7 61 -15 19 -8 53 -15
75 -15 32 0 39 3 36 18 -2 10 -11 16 -21 14 -14 -2 -16 2 -12 21 10 37 -17 57
-78 57 -29 0 -61 3 -72 5 -11 3 -26 1 -34 -4z"/>
<path d="M6101 1867 c-14 -14 -15 -44 -1 -52 6 -3 10 -15 10 -25 0 -33 17 -31
39 6 27 46 27 51 -8 68 -21 11 -31 12 -40 3z"/>
<path d="M2915 1844 c-19 -29 -13 -39 25 -49 19 -4 31 0 44 14 18 20 18 22 1
41 -25 27 -49 25 -70 -6z"/>
<path d="M4717 1861 c-1 -3 -2 -22 -2 -41 0 -26 6 -37 26 -49 41 -23 72 -9 91
43 10 27 13 48 8 51 -12 8 -120 4 -123 -4z"/>
<path d="M3871 1799 c-17 -34 -31 -74 -31 -88 0 -24 0 -24 25 9 14 19 25 42
25 52 0 10 7 30 16 44 12 17 14 28 7 35 -7 7 -20 -9 -42 -52z"/>
<path d="M3997 1818 c-14 -23 -30 -54 -35 -68 -5 -14 -18 -44 -27 -67 -15 -36
-16 -47 -5 -73 26 -62 45 -26 53 100 1 19 10 41 19 48 23 17 43 81 30 94 -7 7
-18 -4 -35 -34z"/>
<path d="M4963 1838 c-29 -33 -55 -93 -51 -120 5 -34 63 -29 120 10 69 47 74
56 48 89 -37 48 -85 56 -117 21z"/>
<path d="M6757 1834 c-3 -3 -3 -12 0 -20 8 -21 -28 -30 -42 -11 -14 19 -42 22
-65 7 -13 -9 -13 -12 2 -24 13 -9 14 -16 6 -24 -14 -14 -4 -18 67 -26 40 -5
59 -2 97 16 45 22 61 38 37 38 -7 0 -22 11 -35 25 -22 23 -53 32 -67 19z"/>
<path d="M4088 1800 c-50 -58 19 -119 80 -72 21 16 22 23 15 53 -8 30 -14 34
-44 37 -24 2 -39 -3 -51 -18z"/>
<path d="M7258 1753 c-27 -7 -22 -20 9 -26 27 -5 47 9 37 25 -5 8 -17 9 -46 1z"/>
<path d="M5400 1737 c0 -9 8 -18 18 -20 9 -3 0 -5 -20 -6 -30 -1 -38 -5 -38
-20 0 -24 67 -35 91 -15 18 16 45 18 54 5 3 -6 22 -9 43 -8 l37 1 -24 25 c-24
23 -61 37 -128 48 -25 4 -33 2 -33 -10z"/>
<path d="M4274 1703 c-49 -116 -57 -194 -21 -201 13 -3 26 14 52 73 40 86 41
95 20 135 -20 39 -31 38 -51 -7z"/>
<path d="M2672 1722 c-22 -14 -26 -76 -7 -92 15 -13 20 -12 37 10 35 43 11
108 -30 82z"/>
<path d="M2750 1695 c-14 -17 -9 -100 8 -117 13 -13 58 16 67 45 7 21 8 20 12
-6 3 -16 12 -31 21 -33 9 -3 27 -10 38 -16 36 -17 59 -6 62 30 3 28 0 32 -21
32 -14 0 -30 7 -38 16 -8 10 -23 14 -40 12 -23 -4 -30 1 -40 24 -13 31 -48 38
-69 13z"/>
<path d="M3301 1684 c0 -36 49 -79 79 -69 43 14 10 93 -33 81 -12 -3 -27 0
-34 6 -10 8 -13 4 -12 -18z"/>
<path d="M5697 1703 c-59 -9 -106 -93 -70 -125 14 -11 30 -14 67 -9 44 5 51 9
59 36 6 17 16 35 23 40 11 8 11 15 1 35 -13 26 -31 31 -80 23z"/>
<path d="M6960 1695 c0 -8 5 -15 10 -15 6 0 10 7 10 15 0 8 -4 15 -10 15 -5 0
-10 -7 -10 -15z"/>
<path d="M3815 1666 c-15 -11 -17 -21 -12 -58 5 -38 3 -49 -13 -63 -24 -22
-25 -28 -2 -76 18 -40 30 -46 63 -29 14 8 19 21 19 55 0 24 -5 47 -11 51 -7 4
-9 21 -6 41 6 38 -1 93 -12 93 -4 0 -15 -6 -26 -14z"/>
<path d="M7212 1647 c-28 -30 -30 -97 -4 -120 26 -24 87 -25 111 -2 26 23 29
105 5 129 -24 25 -86 20 -112 -7z"/>
<path d="M4897 1646 c-27 -28 -49 -283 -24 -291 39 -13 51 -9 61 20 5 17 15
45 23 63 9 20 12 47 9 66 -3 17 -2 47 4 66 13 44 6 64 -26 78 -31 15 -30 15
-47 -2z"/>
<path d="M6941 1626 c-22 -25 -34 -92 -20 -117 13 -26 72 -25 115 2 32 19 34
24 34 75 0 36 -4 54 -12 55 -70 8 -99 4 -117 -15z"/>
<path d="M7700 1618 c-14 -15 -27 -30 -29 -33 -13 -15 -10 -100 4 -122 9 -13
13 -28 10 -33 -10 -15 -27 -162 -30 -253 -2 -48 -8 -101 -15 -117 -7 -18 -10
-50 -6 -84 3 -31 9 -80 12 -109 5 -45 3 -55 -15 -71 -12 -11 -21 -27 -21 -37
0 -24 -10 -49 -20 -49 -5 0 -10 19 -12 42 -3 41 -5 43 -43 51 -106 22 -111 21
-123 -12 -8 -24 -17 -31 -36 -31 -15 0 -26 -6 -26 -14 0 -9 25 -17 78 -25 42
-7 88 -14 102 -17 14 -3 35 -6 47 -7 12 -1 35 -15 51 -30 25 -24 33 -27 50
-18 15 8 21 23 24 62 1 28 -1 58 -7 67 -5 9 -10 41 -11 70 -1 45 2 55 21 68
28 18 38 86 19 125 -7 15 -10 29 -7 33 3 3 10 43 14 88 5 46 11 113 15 149 4
43 3 73 -5 88 -10 18 -9 26 8 48 25 31 27 86 6 127 -8 15 -15 37 -15 47 0 29
-13 28 -40 -3z"/>
<path d="M5370 1630 c0 -6 17 -10 38 -10 20 0 56 -2 80 -6 34 -5 42 -3 42 10
0 13 -13 16 -80 16 -48 0 -80 -4 -80 -10z"/>
<path d="M2987 1623 c-14 -14 -7 -91 11 -113 31 -38 58 -20 65 42 4 32 2 57
-4 65 -12 14 -61 18 -72 6z"/>
<path d="M7407 1623 c-3 -5 -4 -24 -3 -43 1 -30 6 -38 38 -53 49 -24 178 -36
178 -16 -1 22 -27 52 -35 40 -10 -18 -25 -13 -25 8 0 13 8 21 23 23 17 3 13 7
-20 16 -23 7 -45 17 -48 22 -7 12 -102 14 -108 3z m113 -43 c0 -27 -17 -34
-29 -12 -7 13 -7 22 1 30 15 15 28 6 28 -18z"/>
<path d="M6765 1591 c-11 -5 -45 -11 -75 -15 -64 -9 -90 -28 -90 -68 0 -21 6
-31 23 -37 28 -11 154 2 184 18 12 6 34 11 48 11 44 0 23 24 -26 30 l-44 5 33
12 c40 15 41 28 1 42 -18 6 -32 11 -33 10 -1 0 -10 -4 -21 -8z"/>
<path d="M6468 1569 c-36 -18 -57 -56 -44 -78 3 -5 -1 -17 -10 -26 -9 -9 -15
-17 -13 -19 54 -37 101 -40 127 -8 15 20 16 93 0 127 -13 29 -11 29 -60 4z"/>
<path d="M5132 1567 c-13 -16 -38 -208 -29 -230 3 -9 16 -17 27 -17 12 0 20
-7 20 -16 0 -12 -6 -15 -23 -10 -15 3 -32 -2 -51 -17 -26 -21 -28 -27 -21 -65
7 -45 19 -56 76 -66 37 -7 58 7 72 46 6 16 9 16 41 3 20 -8 47 -15 61 -15 14
0 38 -9 54 -21 23 -17 35 -19 77 -12 59 10 72 36 27 54 -48 18 -165 42 -218
43 -44 1 -51 4 -63 28 -11 23 -10 32 4 60 17 33 46 197 37 211 -2 4 -12 7 -22
7 -10 0 -24 7 -31 15 -15 18 -24 19 -38 2z"/>
<path d="M3135 1535 c-16 -36 -11 -61 20 -100 15 -18 16 -18 44 -2 36 21 33
22 65 -8 15 -14 45 -28 67 -31 41 -7 41 -7 53 -80 3 -17 -2 -66 -10 -110 -23
-114 -27 -152 -20 -171 5 -12 11 -7 27 23 32 63 48 150 36 190 -9 31 -8 36 11
50 24 17 30 72 12 119 -8 22 -13 24 -29 15 -30 -16 -39 -12 -56 19 -20 40 -49
47 -81 22 -33 -26 -44 -19 -44 28 0 72 -69 99 -95 36z"/>
<path d="M2756 1551 c-27 -43 -49 -251 -27 -251 11 0 14 8 37 127 13 66 15 98
8 114 -8 17 -13 19 -18 10z"/>
<path d="M3924 1525 c-38 -92 9 -140 64 -65 13 17 32 30 43 30 17 0 19 -4 13
-35 -5 -30 -3 -36 20 -46 20 -10 30 -9 50 5 26 17 65 22 67 9 8 -74 20 -93 59
-93 21 0 37 11 61 41 l32 40 -34 30 c-30 26 -39 29 -82 24 -34 -4 -54 -1 -69
10 -13 8 -36 15 -53 15 -16 0 -39 7 -49 15 -11 8 -28 15 -38 15 -9 0 -22 9
-28 20 -16 30 -39 24 -56 -15z"/>
<path d="M6196 1474 c-39 -87 -39 -86 -81 -101 -22 -7 -43 -20 -48 -28 -4 -8
-15 -15 -22 -15 -8 0 -15 -8 -15 -19 0 -10 -7 -24 -15 -31 -12 -10 -15 -9 -15
7 0 27 -22 54 -37 45 -7 -4 -18 -39 -24 -77 -22 -134 -22 -160 0 -222 12 -33
21 -62 21 -66 0 -4 -18 -16 -41 -28 -35 -17 -40 -24 -36 -46 3 -15 -1 -27 -9
-30 -26 -10 -14 -23 27 -29 22 -4 50 -15 62 -24 l21 -18 -28 -70 c-26 -64 -28
-79 -22 -144 4 -40 14 -83 22 -96 17 -26 9 -40 -26 -43 -39 -4 -58 -6 -97 -7
-42 -2 -63 -22 -24 -22 28 0 35 -17 11 -25 -29 -9 -14 -25 23 -25 18 0 50 -9
72 -20 22 -11 45 -20 51 -20 13 0 74 -54 74 -66 0 -4 7 -15 15 -24 13 -15 12
-19 -17 -40 l-31 -23 -16 22 c-14 18 -21 20 -42 13 -14 -6 -55 -8 -92 -5 -67
6 -74 3 -68 -31 1 -4 -3 -14 -9 -21 -17 -20 4 -28 89 -33 48 -3 82 -10 93 -19
10 -9 24 -13 33 -9 26 10 60 -10 80 -48 19 -35 21 -36 77 -36 32 0 58 2 58 4
0 10 -62 35 -75 30 -7 -3 -23 0 -35 6 l-22 12 31 28 c51 47 41 121 -19 142 -9
3 -22 34 -32 78 -10 40 -24 77 -31 84 -18 14 -29 94 -16 118 6 10 21 18 37 18
33 0 42 6 70 47 33 47 122 95 169 91 36 -3 37 -1 43 32 3 20 9 41 13 47 4 6
-2 41 -14 77 -21 63 -21 67 -4 92 20 30 13 108 -11 135 -22 24 -72 12 -89 -21
-8 -16 -23 -31 -34 -35 -10 -3 -29 -29 -41 -58 -12 -29 -29 -60 -37 -69 -9
-10 -13 -25 -9 -34 4 -10 -1 -22 -11 -30 -17 -13 -17 -13 0 -14 9 0 17 4 17 9
0 21 103 121 124 121 44 0 76 -72 56 -125 -7 -20 -17 -25 -42 -25 -36 0 -108
-50 -108 -75 0 -7 -13 -27 -29 -44 -31 -33 -87 -43 -97 -17 -5 13 4 70 24 148
8 31 5 49 -15 105 -14 37 -26 87 -29 111 -4 41 -3 43 23 40 42 -5 39 22 -12
90 -25 34 -45 69 -45 78 0 23 47 64 65 58 8 -4 30 -3 48 0 26 5 39 17 65 61
33 54 51 65 81 46 12 -8 12 -14 2 -40 -16 -37 -23 -209 -10 -233 7 -13 21 -17
54 -16 l45 1 0 58 c0 32 -4 61 -10 64 -5 3 -10 35 -10 70 0 76 -13 117 -34
109 -8 -3 0 10 19 30 24 26 42 36 64 36 17 0 31 5 31 10 0 6 -13 10 -29 10
-38 0 -48 16 -20 30 30 16 13 29 -48 37 l-50 5 -27 -58z"/>
<path d="M5673 1512 c-27 -4 -87 -85 -90 -122 -2 -14 -6 -48 -9 -76 -7 -63 10
-85 44 -53 12 11 22 29 22 40 0 13 6 19 16 17 10 -2 19 3 21 10 3 7 -3 12 -14
12 -17 0 -16 6 14 68 45 91 44 112 -4 104z"/>
<path d="M2640 1480 c0 -19 3 -21 12 -12 9 9 9 15 0 24 -9 9 -12 7 -12 -12z"/>
<path d="M7216 1447 c-8 -23 -16 -55 -16 -72 1 -210 -1 -236 -20 -268 -26 -41
-25 -71 2 -110 12 -18 22 -33 23 -34 3 -7 91 20 97 30 4 7 8 33 8 60 0 52 -24
87 -60 87 -11 0 -20 4 -20 9 0 5 9 11 20 14 13 3 20 14 20 29 0 13 7 34 16 47
19 27 26 213 9 229 -5 5 -22 12 -36 16 -24 5 -28 1 -43 -37z"/>
<path d="M2984 1433 c-12 -26 -18 -70 -19 -142 -2 -97 -3 -105 -23 -114 -30
-14 -31 -84 -2 -115 24 -25 33 -27 48 -9 17 20 18 69 3 105 -11 27 -10 39 8
91 22 65 30 205 11 216 -5 3 -17 -11 -26 -32z"/>
<path d="M6959 1453 c-29 -5 -28 3 -31 -163 -2 -58 1 -120 5 -138 6 -28 3 -34
-18 -44 -22 -10 -25 -17 -25 -70 0 -51 3 -60 23 -69 16 -7 34 -6 62 3 37 12
41 17 53 63 12 48 11 51 -12 70 -20 16 -22 24 -15 44 13 34 4 54 -21 46 -11
-4 -20 -2 -20 4 0 6 8 11 18 11 36 0 46 18 53 92 4 40 5 92 2 116 -6 45 -7 45
-74 35z"/>
<path d="M2640 1395 c0 -27 2 -46 5 -44 7 8 9 78 2 85 -4 4 -7 -14 -7 -41z"/>
<path d="M8030 1408 c0 -15 5 -30 10 -33 13 -8 13 25 0 45 -8 12 -10 9 -10
-12z"/>
<path d="M5420 1386 c-12 -33 -6 -46 23 -46 43 0 49 14 17 45 l-29 28 -11 -27z"/>
<path d="M3121 1378 c-16 -40 -42 -204 -35 -222 4 -11 -3 -23 -21 -38 -23 -18
-26 -26 -21 -62 14 -108 21 -140 29 -128 5 6 6 16 3 21 -3 5 5 16 19 25 14 9
25 23 25 30 0 7 7 19 14 26 13 10 12 17 -6 54 l-20 43 25 40 c26 41 55 189 43
219 -9 22 -45 17 -55 -8z"/>
<path d="M3927 1393 c-4 -3 -7 -17 -7 -30 0 -28 26 -31 35 -3 9 30 -10 52 -28
33z"/>
<path d="M6439 1379 c-6 -12 -8 -39 -5 -63 5 -29 2 -47 -8 -61 -19 -25 -19
-63 -2 -137 10 -39 11 -59 3 -67 -25 -25 -11 -194 16 -192 4 1 14 1 23 1 11 0
14 6 9 21 -4 13 -1 25 8 32 19 15 33 122 17 132 -8 5 -9 24 -5 57 4 27 7 77 7
111 0 34 6 74 14 89 17 32 5 71 -25 87 -29 16 -39 14 -52 -10z"/>
<path d="M3508 1348 c-34 -36 -34 -39 -3 -68 26 -24 33 -58 15 -76 -9 -9 -21
-67 -47 -234 -3 -19 -14 -41 -24 -48 -11 -7 -19 -20 -19 -28 0 -8 -5 -22 -11
-32 -7 -12 -7 -25 0 -46 10 -25 15 -28 43 -22 17 3 36 2 43 -4 16 -13 75 -1
75 15 0 7 12 16 26 19 33 9 26 30 -12 34 -16 2 -33 10 -37 19 -8 13 -11 12
-27 -2 -17 -15 -19 -14 -30 21 -11 32 -10 42 8 83 13 28 25 87 32 150 5 57 13
107 16 112 3 5 18 9 33 9 15 0 41 11 59 23 l32 24 -23 21 c-13 12 -32 22 -43
22 -10 0 -25 9 -32 20 -17 27 -42 23 -74 -12z"/>
<path d="M3783 1328 c-31 -41 -50 -94 -41 -118 5 -14 7 -38 4 -55 -2 -16 -2
-79 2 -140 l7 -109 18 28 c23 35 34 160 18 206 -9 28 -8 38 8 64 23 38 35 89
26 116 -7 23 -28 26 -42 8z"/>
<path d="M3900 1310 c-22 -22 -28 -97 -9 -131 10 -19 10 -19 40 1 26 19 29 27
29 74 0 73 -22 94 -60 56z"/>
<path d="M2595 1270 c-8 -24 2 -77 16 -85 5 -3 18 -1 29 5 20 11 27 51 14 84
-9 23 -51 20 -59 -4z"/>
<path d="M2684 1234 c-14 -33 -14 -40 2 -78 l18 -43 23 28 c28 33 31 89 5 112
-26 24 -31 22 -48 -19z"/>
<path d="M4982 1258 c7 -19 38 -22 38 -4 0 10 -9 16 -21 16 -12 0 -19 -5 -17
-12z"/>
<path d="M4024 1234 c4 -15 2 -32 -5 -40 -14 -17 6 -27 48 -22 56 6 35 88 -24
88 -22 0 -24 -3 -19 -26z"/>
<path d="M4142 1214 c-22 -15 -30 -62 -16 -98 7 -19 69 -50 82 -42 14 8 42 71
42 93 0 27 -36 63 -63 63 -12 0 -33 -7 -45 -16z"/>
<path d="M5568 1194 c-7 -15 -19 -24 -35 -24 -17 0 -23 -6 -23 -23 0 -20 44
-97 56 -97 2 0 20 16 40 35 19 19 40 35 47 35 14 0 17 73 4 87 -5 4 -24 8 -43
10 -28 2 -37 -3 -46 -23z"/>
<path d="M2780 1200 c0 -6 10 -14 22 -19 18 -6 19 -9 5 -14 -26 -10 -20 -20
22 -41 47 -22 67 -17 73 19 5 22 0 30 -26 46 -33 20 -96 26 -96 9z"/>
<path d="M4342 1158 c-7 -7 -12 -22 -12 -34 0 -13 -4 -26 -10 -29 -16 -10 -12
-24 14 -50 l24 -24 -20 -43 c-26 -52 -47 -147 -48 -210 0 -42 3 -48 34 -66 44
-26 43 -29 58 159 10 128 14 150 30 154 31 11 36 106 6 142 -13 16 -60 17 -76
1z"/>
<path d="M3875 1100 c-3 -5 -10 -47 -15 -92 -14 -126 -21 -162 -35 -178 -14
-16 -16 -166 -2 -187 4 -7 -6 -22 -27 -40 -22 -18 -36 -40 -40 -65 -6 -32 -3
-38 23 -57 25 -18 33 -20 56 -9 14 6 24 17 21 25 -3 7 1 27 8 45 12 28 12 37
0 60 -10 20 -12 34 -5 47 7 12 7 21 -1 29 -18 18 38 39 63 24 35 -22 104 -42
146 -42 30 0 45 -5 52 -17 5 -10 25 -27 45 -37 29 -15 38 -17 51 -6 21 17 19
66 -5 119 -11 24 -20 60 -20 80 0 20 -4 42 -9 50 -13 21 -24 -20 -16 -63 6
-29 3 -37 -18 -51 -14 -9 -28 -26 -31 -38 -5 -21 -7 -21 -25 10 -27 44 -107
68 -152 46 -20 -10 -34 -12 -40 -6 -17 17 -21 105 -6 122 25 28 47 101 41 129
-7 31 -42 112 -48 112 -3 0 -8 -4 -11 -10z m135 -370 c0 -5 -9 -10 -21 -10
-11 0 -17 5 -14 10 3 6 13 10 21 10 8 0 14 -4 14 -10z"/>
<path d="M4463 1079 c4 -13 7 -30 7 -36 0 -7 22 -24 50 -38 41 -21 64 -25 132
-25 75 0 84 -2 110 -27 20 -19 38 -26 69 -27 44 -1 48 2 68 63 9 31 8 38 -10
57 -25 26 -72 35 -111 20 -20 -7 -28 -16 -25 -28 7 -26 -17 -42 -33 -23 -31
37 -97 72 -140 73 -25 1 -63 4 -84 8 -37 6 -39 5 -33 -17z"/>
<path d="M7360 1081 c0 -6 5 -13 10 -16 6 -3 10 -22 10 -41 0 -33 1 -34 39
-34 21 0 51 -4 67 -9 16 -5 42 -12 57 -15 28 -7 28 -6 22 31 -12 68 -13 70
-60 76 -25 4 -56 2 -69 -3 -18 -7 -26 -5 -30 6 -6 15 -46 20 -46 5z"/>
<path d="M6700 1059 c-36 -11 -81 -23 -100 -27 -19 -4 -34 -11 -32 -15 1 -4 2
-21 2 -38 l0 -32 82 7 c45 4 87 11 92 16 6 4 28 11 49 15 27 5 37 12 37 26 0
10 5 21 10 24 6 3 10 15 10 26 0 16 -7 19 -42 18 -24 0 -72 -9 -108 -20z"/>
<path d="M2580 1046 c0 -25 12 -46 25 -46 19 0 27 17 20 40 -7 23 -45 28 -45
6z"/>
<path d="M2663 1043 c-26 -10 -8 -133 19 -133 31 0 48 23 48 65 0 24 -3 50 -6
59 -6 15 -36 20 -61 9z"/>
<path d="M3163 1028 c-9 -20 -6 -27 20 -51 17 -15 48 -30 69 -33 37 -6 38 -8
39 -48 1 -42 16 -105 18 -74 1 9 10 19 20 23 11 3 25 24 33 49 13 40 13 45 -5
67 -16 19 -21 21 -38 11 -16 -10 -19 -9 -19 7 0 25 -44 56 -91 65 -31 5 -37 3
-46 -16z"/>
<path d="M5052 1039 c-12 -5 -27 -21 -32 -36 -6 -16 -15 -36 -21 -46 -8 -15
-5 -23 16 -43 22 -20 36 -24 73 -22 45 3 58 13 75 62 5 15 47 -18 47 -38 0
-17 7 -18 73 -14 58 4 80 1 110 -15 21 -11 40 -18 42 -16 2 2 6 20 10 40 6 35
6 36 -37 52 -59 21 -183 40 -219 33 -24 -4 -31 -1 -42 21 -15 28 -54 37 -95
22z"/>
<path d="M4166 1033 c-9 -10 -7 -103 3 -103 13 0 21 26 21 65 0 33 -11 51 -24
38z"/>
<path d="M2758 965 c-7 -33 30 -68 67 -63 23 2 28 9 31 33 3 28 0 31 -36 43
-54 16 -57 16 -62 -13z"/>
<path d="M5506 958 c-15 -13 -29 -37 -32 -55 -5 -26 -2 -34 22 -49 15 -10 42
-20 59 -21 25 -1 35 4 48 27 50 84 -26 160 -97 98z"/>
<path d="M5697 965 c-21 -20 -22 -76 -3 -113 13 -25 12 -34 -6 -87 -14 -42
-22 -96 -25 -180 -3 -66 -6 -140 -8 -165 -4 -62 14 -105 46 -105 48 0 76 88
47 150 -9 19 -8 49 2 128 7 56 13 124 14 152 1 44 -2 50 -19 50 -35 0 -23 27
13 30 43 4 48 10 55 66 7 55 -7 73 -64 84 -27 5 -40 2 -52 -10z"/>
<path d="M2888 939 c-27 -15 -21 -50 18 -94 l34 -40 20 24 c51 60 -7 148 -72
110z"/>
<path d="M7250 900 c0 -28 -3 -30 -34 -30 -25 0 -39 -7 -50 -22 -20 -28 -21
-102 -2 -117 23 -19 102 -23 116 -6 12 14 9 85 -5 168 -9 44 -25 49 -25 7z"/>
<path d="M3034 890 c-20 -8 -21 -14 -19 -202 2 -106 6 -201 10 -210 4 -11 -1
-31 -15 -53 -19 -31 -21 -44 -15 -103 6 -59 3 -72 -18 -112 -17 -33 -25 -68
-29 -128 -6 -82 -6 -82 18 -82 22 0 24 4 24 45 0 31 5 47 15 51 8 4 15 12 15
20 0 8 9 19 19 26 18 11 19 15 5 46 -16 38 -19 98 -5 106 30 19 54 189 30 213
-7 7 -15 60 -19 120 -7 98 -6 110 11 129 28 30 28 146 1 143 -4 0 -16 -4 -28
-9z"/>
<path d="M2657 830 c-10 -34 -17 -96 -17 -144 0 -51 -4 -88 -11 -92 -12 -7 -5
-74 12 -105 13 -25 43 -24 60 1 14 20 15 20 54 -15 21 -20 45 -33 53 -30 7 3
16 5 18 5 2 0 4 11 4 25 0 27 -41 60 -90 72 -30 7 -86 63 -71 72 29 18 43 259
15 268 -6 2 -18 -24 -27 -57z"/>
<path d="M4762 843 c-19 -75 -25 -114 -25 -170 0 -57 7 -73 25 -55 8 8 15 5
28 -11 l18 -22 17 40 c13 31 17 65 16 145 -1 57 -3 105 -4 106 -1 1 -16 5 -32
8 -29 6 -31 5 -43 -41z m58 2 c0 -8 -4 -15 -9 -15 -13 0 -22 16 -14 24 11 11
23 6 23 -9z"/>
<path d="M3703 848 c-11 -13 -25 -38 -32 -57 -9 -29 -8 -37 5 -53 25 -27 50
-22 73 16 25 40 26 59 5 91 -20 31 -25 31 -51 3z"/>
<path d="M5020 817 c-10 -23 -21 -76 -23 -117 -3 -41 -8 -82 -11 -90 -9 -25 7
-39 51 -45 36 -4 41 -2 47 18 9 39 28 214 24 232 -1 9 -18 23 -36 31 l-33 14
-19 -43z"/>
<path d="M6914 850 c-12 -5 -26 -23 -33 -40 l-11 -32 -24 20 c-41 31 -126 28
-237 -9 l-93 -31 -17 21 c-21 26 -70 28 -92 4 -8 -10 -17 -40 -19 -67 -3 -45
0 -51 23 -64 46 -27 100 4 103 60 1 10 4 18 9 18 4 0 14 0 23 0 13 0 14 -3 4
-15 -17 -21 9 -30 58 -20 20 4 66 11 102 15 60 7 117 24 147 43 7 5 17 -1 24
-15 18 -34 30 -39 74 -32 50 7 65 26 65 79 0 64 -43 91 -106 65z"/>
<path d="M7064 812 c-6 -4 -4 -13 7 -24 15 -14 18 -15 23 -1 10 26 -7 41 -30
25z"/>
<path d="M3141 788 c-8 -10 -21 -18 -28 -18 -20 0 -15 -12 14 -37 38 -33 77
-30 93 7 16 40 8 57 -31 62 -23 4 -36 0 -48 -14z"/>
<path d="M2909 759 c-12 -24 -17 -192 -5 -226 6 -19 3 -25 -18 -33 -15 -5 -26
-17 -26 -28 0 -10 -5 -23 -11 -29 -9 -9 -6 -19 10 -42 13 -17 28 -31 34 -31
34 1 41 26 39 143 -1 15 -1 35 -1 45 0 9 0 49 -1 88 -1 39 1 85 5 102 8 37 -8
44 -26 11z"/>
<path d="M3436 763 c-9 -9 -7 -33 3 -33 12 0 22 28 12 34 -5 3 -11 3 -15 -1z"/>
<path d="M3254 739 c-11 -19 -8 -109 4 -121 19 -19 66 11 70 44 7 55 -50 115
-74 77z"/>
<path d="M5483 735 c-3 -9 -3 -28 0 -44 4 -16 0 -36 -8 -48 -7 -10 -13 -40
-13 -66 0 -41 3 -48 24 -53 50 -13 80 41 83 142 1 67 0 72 -21 78 -38 10 -58
7 -65 -9z"/>
<path d="M3386 684 c-18 -17 -21 -70 -6 -108 6 -16 6 -35 1 -49 -5 -12 -15
-62 -22 -112 -7 -49 -13 -91 -14 -93 -1 -1 -23 7 -48 18 -42 19 -47 24 -47 54
0 19 7 53 15 76 17 47 11 110 -10 110 -7 0 -18 -21 -25 -47 -6 -27 -16 -59
-20 -73 -5 -14 -12 -51 -15 -83 -5 -44 -13 -64 -31 -80 -28 -24 -31 -64 -9
-107 17 -32 29 -36 71 -20 25 10 26 12 10 28 -42 47 -27 122 24 122 54 0 78
-65 40 -113 -24 -30 -25 -41 -6 -56 17 -14 27 -59 15 -67 -5 -3 -9 -16 -9 -30
0 -19 -8 -29 -32 -39 l-33 -14 46 -1 c44 0 47 2 52 30 4 16 4 37 1 45 -4 9 3
23 17 34 22 17 23 25 21 112 -1 68 2 97 12 108 8 9 20 61 26 116 7 59 18 104
26 111 7 6 18 23 23 37 6 15 17 27 26 27 21 0 19 17 -3 25 -11 3 -24 17 -30
30 -13 29 -43 33 -66 9z"/>
<path d="M6930 657 c-21 -11 -26 -21 -31 -72 -3 -33 -3 -96 0 -140 l6 -80 33
-3 c48 -5 62 18 61 98 -1 36 -4 76 -8 90 -4 14 -3 37 1 52 10 29 -4 68 -25 68
-7 0 -23 -6 -37 -13z"/>
<path d="M7175 660 c-2 -3 -5 -66 -7 -140 l-3 -135 40 0 c57 0 66 22 63 165
l-3 115 -43 0 c-24 0 -45 -2 -47 -5z"/>
<path d="M4253 653 c-18 -7 -16 -38 2 -53 8 -7 24 -32 34 -55 27 -61 38 -63
61 -13 38 83 22 128 -43 127 -23 0 -48 -3 -54 -6z"/>
<path d="M2551 606 c-15 -27 -11 -68 6 -73 15 -5 47 62 39 82 -8 22 -31 18
-45 -9z"/>
<path d="M3642 618 c-12 -6 -25 -22 -28 -35 -4 -16 -13 -23 -29 -23 -13 0 -27
-4 -30 -10 -3 -5 -2 -10 3 -10 5 0 26 -13 46 -29 45 -36 73 -31 93 17 13 32
13 39 -1 69 -17 36 -20 37 -54 21z"/>
<path d="M5327 624 c-14 -14 -6 -24 19 -24 16 0 24 5 22 13 -5 14 -31 21 -41
11z"/>
<path d="M6413 607 c-21 -32 -2 -279 20 -278 4 1 20 1 37 1 41 0 55 28 41 88
-6 26 -12 81 -15 122 -3 41 -5 76 -5 77 -3 7 -73 -2 -78 -10z"/>
<path d="M7632 599 c-13 -21 -32 -155 -36 -261 -3 -64 -17 -88 -53 -88 -22 0
-24 -2 -12 -16 7 -9 12 -31 10 -49 -2 -25 4 -37 25 -54 32 -25 66 -27 84 -6
20 24 13 105 -10 130 -19 20 -19 23 -4 54 30 61 45 299 19 308 -6 2 -16 -6
-23 -18z"/>
<path d="M4407 585 c-4 -8 -2 -17 3 -20 6 -4 10 -15 10 -25 0 -13 9 -22 26
-26 15 -4 35 -15 45 -25 13 -13 34 -19 68 -19 62 0 81 7 81 31 0 12 7 19 19
19 24 0 45 -25 37 -46 -4 -9 0 -27 8 -39 11 -17 23 -21 55 -19 23 1 48 7 55
13 22 19 27 80 9 108 -16 24 -20 25 -88 20 -66 -6 -160 6 -270 33 -52 12 -52
12 -58 -5z"/>
<path d="M7804 579 c-6 -11 -19 -84 -34 -193 -8 -56 -8 -88 0 -110 6 -17 7
-32 2 -34 -26 -8 -40 -32 -45 -75 -4 -40 -1 -53 18 -75 20 -23 25 -25 49 -14
15 7 28 22 31 39 4 15 10 37 15 49 9 22 -3 51 -29 72 -12 10 -13 15 -3 20 23
15 67 217 60 281 -2 28 -8 36 -30 42 -16 4 -30 3 -34 -2z"/>
<path d="M3505 550 c3 -5 13 -10 21 -10 8 0 14 5 14 10 0 6 -9 10 -21 10 -11
0 -17 -4 -14 -10z"/>
<path d="M3947 544 c-3 -3 6 -17 19 -31 28 -30 24 -38 -19 -38 -42 0 -49 -18
-11 -29 16 -4 37 -12 46 -17 30 -15 51 -11 46 9 -3 12 2 24 14 31 19 12 19 13
2 32 -9 10 -24 19 -33 19 -9 0 -26 7 -37 15 -12 8 -24 12 -27 9z"/>
<path d="M4973 528 c-11 -18 -32 -101 -27 -109 2 -4 25 -17 51 -29 l47 -22 18
24 c26 34 34 87 17 117 -11 20 -24 27 -56 29 -26 2 -44 -2 -50 -10z"/>
<path d="M4118 489 c-10 -5 -18 -19 -18 -29 0 -10 -5 -31 -12 -45 -10 -23 -9
-29 14 -52 24 -23 29 -24 60 -14 35 12 35 12 30 64 -6 73 -33 100 -74 76z"/>
<path d="M5163 493 c-13 -2 -23 -8 -23 -12 0 -11 31 -37 55 -45 19 -7 19 -8 3
-20 -29 -22 -21 -29 25 -22 57 10 87 8 103 -5 15 -12 64 -4 64 10 0 20 -59 70
-96 80 -51 15 -104 20 -131 14z"/>
<path d="M5432 468 c-5 -7 -13 -27 -16 -44 -6 -27 -3 -35 24 -58 36 -29 81
-34 104 -10 23 22 20 80 -4 104 -23 23 -91 28 -108 8z"/>
<path d="M3637 464 c-3 -5 -8 -47 -12 -94 -4 -48 -13 -92 -21 -101 -18 -20
-29 -75 -17 -82 19 -12 55 55 74 135 10 43 19 85 19 93 0 18 -36 60 -43 49z"/>
<path d="M2475 450 c-4 -6 -4 -24 0 -41 5 -22 17 -35 50 -50 35 -16 46 -29 61
-67 24 -62 32 -238 13 -273 -8 -16 -6 -19 11 -19 11 0 20 6 20 14 0 7 7 20 16
27 20 16 14 87 -13 157 l-17 45 27 19 c29 21 35 56 17 102 -11 30 -35 33 -62
9 -25 -23 -47 -9 -73 45 -19 41 -37 52 -50 32z"/>
<path d="M4276 432 c-3 -5 -6 -29 -7 -55 -2 -32 2 -52 15 -65 15 -17 16 -27 6
-87 -6 -37 -15 -75 -19 -84 -5 -9 -12 -38 -16 -66 -4 -27 -12 -56 -17 -62 -8
-10 1 -13 40 -13 l51 0 7 37 c4 21 11 43 16 49 5 7 13 46 17 88 5 42 14 82 20
90 13 16 -2 69 -28 101 -10 11 -22 32 -29 48 -11 26 -44 37 -56 19z"/>
<path d="M3751 386 c-6 -25 -11 -55 -11 -68 0 -13 -6 -48 -14 -78 -12 -46 -12
-59 -2 -82 12 -24 11 -28 -13 -46 -26 -19 -28 -30 -23 -94 2 -14 11 -18 37
-18 25 0 37 5 41 18 3 9 11 27 17 40 9 18 6 28 -12 53 -20 27 -21 32 -8 52 18
28 37 136 37 210 0 49 -3 57 -19 57 -14 0 -22 -12 -30 -44z"/>
<path d="M4410 325 c0 -8 4 -15 9 -15 5 0 12 -13 16 -29 5 -23 14 -31 48 -40
70 -18 110 -18 130 2 23 23 41 22 34 -3 -3 -14 3 -29 19 -45 27 -27 49 -30
142 -19 40 5 50 10 42 19 -6 7 -20 11 -31 8 -19 -5 -20 -2 -18 30 4 42 -7 56
-55 72 -27 10 -41 9 -66 -1 -20 -9 -37 -10 -48 -4 -65 35 -222 53 -222 25z"/>
<path d="M6891 302 c-7 -15 -17 -46 -21 -70 -6 -37 -4 -45 14 -57 27 -19 76
-19 104 1 17 12 22 25 22 60 0 61 -14 86 -44 78 -13 -3 -33 -1 -43 4 -15 8
-21 5 -32 -16z"/>
<path d="M7152 314 c-17 -12 -21 -24 -20 -57 2 -61 24 -86 75 -87 32 0 45 5
57 22 21 29 21 102 0 122 -20 20 -83 21 -112 0z"/>
<path d="M2703 304 c-9 -23 16 -62 45 -69 54 -13 51 40 -4 67 -31 16 -35 16
-41 2z"/>
<path d="M4080 280 c0 -22 -7 -58 -16 -80 -13 -33 -14 -48 -5 -85 17 -66 14
-84 -14 -97 -21 -9 -34 -7 -75 12 -42 20 -54 22 -76 11 -19 -8 -30 -9 -39 -1
-7 6 -16 7 -19 2 -3 -5 4 -16 15 -25 15 -14 41 -17 127 -17 l107 0 22 42 c38
77 43 97 42 178 -1 67 -4 82 -19 90 -37 20 -50 12 -50 -30z"/>
<path d="M5684 266 c4 -17 -1 -31 -19 -50 -13 -14 -29 -26 -35 -26 -5 0 -10
-9 -10 -20 0 -13 -7 -20 -19 -20 -26 0 -51 -10 -51 -21 0 -5 14 -9 31 -9 18 0
43 -10 60 -24 15 -13 34 -26 40 -28 7 -2 9 -10 5 -16 -4 -7 -16 -10 -25 -7
-12 4 -21 -2 -29 -20 -11 -25 -11 -25 33 -25 l45 0 0 39 c0 28 7 45 25 62 20
20 23 30 18 64 -3 22 -11 50 -19 61 -7 12 -10 31 -7 43 4 18 1 21 -22 21 -24
0 -26 -3 -21 -24z"/>
<path d="M2486 264 c-11 -27 -7 -35 16 -32 29 4 34 24 10 37 -16 8 -21 7 -26
-5z"/>
<path d="M2827 248 c12 -64 19 -82 35 -92 38 -24 73 55 44 99 -12 19 -25 25
-51 25 -34 0 -34 -1 -28 -32z"/>
<path d="M4936 261 c-21 -23 -29 -62 -21 -97 4 -17 15 -22 57 -27 67 -8 88 8
88 68 0 50 -14 65 -67 72 -30 4 -42 1 -57 -16z"/>
<path d="M6413 258 c-13 -15 -14 -28 -7 -70 l9 -53 53 -3 c48 -3 53 -1 62 23
17 44 12 103 -8 114 -28 15 -91 8 -109 -11z"/>
<path d="M6630 265 c-14 -8 -33 -14 -43 -15 -11 0 -15 -5 -11 -11 3 -6 19 -9
35 -5 24 5 29 2 29 -14 0 -11 -4 -20 -10 -20 -5 0 -10 -4 -10 -9 0 -15 79 -23
130 -14 l45 8 0 45 0 45 -70 2 c-47 2 -78 -2 -95 -12z"/>
<path d="M7322 268 c5 -15 37 -18 41 -3 1 6 -9 12 -22 13 -16 3 -22 -1 -19
-10z"/>
<path d="M7432 271 c4 -13 18 -16 19 -4 0 4 -5 9 -11 12 -7 2 -11 -2 -8 -8z"/>
<path d="M6255 260 c-3 -5 -17 -10 -31 -10 -29 0 -84 -26 -84 -40 0 -10 12
-13 60 -14 16 -1 26 -8 29 -21 2 -11 12 -31 22 -44 22 -28 17 -83 -9 -113 -14
-17 -13 -18 14 -18 29 0 29 1 31 62 1 35 5 89 8 121 5 39 3 62 -5 72 -14 17
-26 19 -35 5z"/>
<path d="M5406 229 c-53 -42 -24 -119 45 -119 58 0 98 77 58 114 -26 25 -75
27 -103 5z"/>
<path d="M5147 230 c-46 -9 -44 -7 -49 -50 l-3 -34 55 -10 c30 -5 75 -10 100
-10 37 -1 45 2 48 19 2 11 13 30 25 43 15 17 18 25 9 34 -13 13 -132 19 -185
8z"/>
<path d="M7340 211 c0 -24 15 -35 36 -27 12 5 12 9 2 26 -16 25 -38 26 -38 1z"/>
<path d="M3417 193 c-3 -4 -8 -27 -12 -50 -6 -38 -5 -43 13 -43 31 0 46 26 36
62 -9 31 -28 47 -37 31z"/>
<path d="M7438 188 c9 -9 15 -9 24 0 9 9 7 12 -12 12 -19 0 -21 -3 -12 -12z"/>
<path d="M3543 138 c-19 -9 -23 -19 -23 -58 0 -57 18 -78 54 -62 43 19 45 134
2 131 -6 0 -21 -5 -33 -11z"/>
<path d="M3080 115 c0 -8 5 -15 10 -15 6 0 10 7 10 15 0 8 -4 15 -10 15 -5 0
-10 -7 -10 -15z"/>
<path d="M4676 115 c-3 -8 -8 -37 -12 -65 l-7 -50 52 0 51 0 0 45 c0 32 -6 51
-20 65 -24 24 -56 26 -64 5z"/>
<path d="M2810 64 c-25 -57 -25 -64 -1 -64 14 0 24 13 35 46 9 26 13 50 10 55
-11 19 -25 7 -44 -37z"/>
<path d="M4980 80 c-23 -18 -26 -18 -37 -3 -11 14 -14 13 -23 -11 -21 -56 -15
-66 39 -66 l49 0 7 41 c9 51 -3 64 -35 39z"/>
<path d="M3123 68 c-5 -7 -7 -24 -4 -38 6 -21 14 -25 49 -28 49 -4 54 10 21
52 -22 28 -51 34 -66 14z"/>
<path d="M7561 63 c2 -10 -2 -28 -9 -41 -12 -21 -11 -22 33 -22 39 0 45 3 45
21 0 15 -5 20 -22 17 -17 -2 -24 3 -26 20 -2 12 -8 22 -13 22 -6 0 -9 -8 -8
-17z"/>
<path d="M5400 51 c0 -11 -3 -26 -6 -35 -5 -13 2 -16 35 -16 44 0 51 12 31 51
-14 26 -60 26 -60 0z"/>
<path d="M6877 29 l-28 -29 75 0 c42 0 76 4 76 8 0 19 -28 40 -60 45 -29 4
-40 0 -63 -24z"/>
<path d="M7148 48 c-8 -7 -18 -21 -21 -31 -6 -15 2 -17 74 -17 84 0 86 2 51
43 -18 20 -81 23 -104 5z"/>
<path d="M7740 45 c-17 -20 -6 -45 20 -45 17 0 21 5 18 27 -4 31 -20 40 -38
18z"/>
<path d="M6437 24 l-18 -24 78 0 78 1 -24 20 c-15 12 -33 18 -45 15 -10 -3
-26 -1 -35 3 -11 6 -21 2 -34 -15z"/>
<path d="M7047 23 c-14 -13 -6 -23 19 -23 22 0 25 2 14 15 -14 16 -23 19 -33
8z"/>
<path d="M6625 10 c-19 -5 12 -8 84 -9 63 0 112 1 110 3 -9 9 -164 13 -194 6z"/>
<path d="M7315 10 c-4 -6 25 -10 82 -9 74 1 82 3 48 10 -56 11 -123 11 -130
-1z"/>
</g>
</svg>
